<svg width="134" height="26" viewBox="0 0 134 26" fill="none" xmlns="http://www.w3.org/2000/svg">
<path d="M9.50328 6.73482C11.8935 6.73482 13.9117 7.20836 15.5578 8.15545C17.2265 9.07998 18.0608 10.5232 18.0608 12.485H11.8033C11.8033 11.831 11.5102 11.3688 10.9239 11.0982C10.518 10.8727 10.0106 10.7599 9.4018 10.7599C7.77823 10.7599 6.96645 11.1433 6.96645 11.91C6.96645 12.3384 7.24832 12.6428 7.81206 12.8232C8.3758 13.0036 9.30033 13.1953 10.5857 13.3982C12.1641 13.6237 13.4833 13.8943 14.5431 14.21C15.6029 14.5032 16.5275 15.0444 17.3167 15.8336C18.1059 16.6003 18.5006 17.6827 18.5006 19.0807C18.5006 21.3582 17.6437 22.9818 15.9299 23.9514C14.2387 24.9211 12.0176 25.4059 9.26651 25.4059C7.68803 25.4059 6.19976 25.1917 4.80168 24.7632C3.40361 24.3122 2.26485 23.6245 1.38542 22.6999C0.505985 21.7754 0.0662676 20.6028 0.0662676 19.1822H6.32378V19.3175C6.34633 20.0842 6.66203 20.6254 7.27087 20.9411C7.90225 21.2342 8.56747 21.3808 9.26651 21.3808C11.1381 21.3808 12.0739 20.9411 12.0739 20.0616C12.0739 19.6106 11.7808 19.2837 11.1945 19.0807C10.6082 18.8778 9.64985 18.6636 8.31942 18.4381C6.7184 18.1675 5.39925 17.8743 4.36197 17.5586C3.34723 17.2429 2.45653 16.713 1.68984 15.9689C0.923153 15.2022 0.539809 14.1424 0.539809 12.7894C0.539809 10.6021 1.36287 9.04616 3.00899 8.12162C4.67766 7.19709 6.84242 6.73482 9.50328 6.73482ZM33.5974 7.14072V11.707H29.809V18.5057C29.809 19.3175 29.9443 19.9151 30.2149 20.2984C30.4855 20.6592 30.9816 20.8396 31.7032 20.8396H33.5974V24.7971C33.0562 24.9775 32.3571 25.124 31.5002 25.2368C30.6434 25.3495 29.8992 25.4059 29.2678 25.4059C27.2835 25.4059 25.7501 25.0451 24.6677 24.3235C23.6079 23.6019 23.078 22.373 23.078 20.6367V11.707H20.575V7.14072H23.3486L24.803 1.72881H29.809V7.14072H33.5974ZM45.9546 6.73482C49.089 6.73482 51.5469 7.53533 53.3283 9.13636C55.1323 10.7148 56.0343 13.0262 56.0343 16.0704C56.0343 19.1146 55.1323 21.4372 53.3283 23.0382C51.5469 24.6167 49.089 25.4059 45.9546 25.4059C42.8202 25.4059 40.3623 24.6167 38.5809 23.0382C36.7995 21.4597 35.9088 19.1371 35.9088 16.0704C35.9088 13.0036 36.7995 10.681 38.5809 9.10253C40.3623 7.52406 42.8202 6.73482 45.9546 6.73482ZM45.9546 11.3011C43.7448 11.3011 42.6398 12.5752 42.6398 15.1233V17.0513C42.6398 19.5768 43.7448 20.8396 45.9546 20.8396C48.187 20.8396 49.3032 19.5768 49.3032 17.0513V15.1233C49.3032 12.5752 48.187 11.3011 45.9546 11.3011ZM68.5152 6.73482C71.4467 6.73482 73.8144 7.36621 75.6184 8.62899C77.4449 9.86922 78.3581 11.7747 78.3581 14.3453H71.83C71.83 12.3158 70.7251 11.3011 68.5152 11.3011C66.3054 11.3011 65.2004 12.5752 65.2004 15.1233V17.0513C65.2004 19.5768 66.3505 20.8396 68.6505 20.8396C70.9506 20.8396 72.1006 19.8023 72.1006 17.7278H78.3581C78.3581 20.321 77.4449 22.2489 75.6184 23.5117C73.8144 24.7745 71.4467 25.4059 68.5152 25.4059C65.3808 25.4059 62.9229 24.6167 61.1415 23.0382C59.3601 21.4597 58.4694 19.1371 58.4694 16.0704C58.4694 13.0036 59.3601 10.681 61.1415 9.10253C62.9229 7.52406 65.3808 6.73482 68.5152 6.73482ZM93.7276 7.14072H101.575L94.9791 14.3453L101.744 25H94.0997L90.3452 18.8778L88.0113 21.144V25H81.2802V0.443484H88.0113V13.9732L93.7276 7.14072ZM112.669 6.73482C115.398 6.73482 117.619 7.19709 119.332 8.12162C121.046 9.02361 121.903 10.5006 121.903 12.5526V19.5204C121.903 19.9038 121.993 20.2195 122.174 20.4675C122.354 20.7156 122.625 20.8396 122.985 20.8396H124.203V24.7294C124.135 24.7745 123.955 24.8534 123.662 24.9662C123.391 25.0564 122.997 25.1466 122.478 25.2368C121.959 25.3495 121.362 25.4059 120.685 25.4059C119.378 25.4059 118.295 25.2142 117.438 24.8309C116.604 24.425 116.029 23.8725 115.713 23.1735C114.856 23.85 113.898 24.3912 112.838 24.7971C111.778 25.2029 110.538 25.4059 109.117 25.4059C104.923 25.4059 102.826 23.7372 102.826 20.3999C102.826 18.6636 103.288 17.3444 104.213 16.4424C105.16 15.5179 106.513 14.8865 108.272 14.5483C110.031 14.21 112.331 14.0409 115.172 14.0409V13.1615C115.172 12.4624 114.924 11.9325 114.428 11.5717C113.954 11.2109 113.334 11.0305 112.568 11.0305C111.869 11.0305 111.26 11.1545 110.741 11.4026C110.245 11.6506 109.997 12.0453 109.997 12.5864V12.7217H103.367C103.345 12.609 103.333 12.4511 103.333 12.2482C103.333 10.557 104.134 9.21528 105.735 8.2231C107.359 7.23091 109.67 6.73482 112.669 6.73482ZM115.172 17.2204C113.255 17.2204 111.835 17.4346 110.91 17.8631C110.008 18.2689 109.557 18.8214 109.557 19.5204C109.557 20.6479 110.324 21.2117 111.857 21.2117C112.737 21.2117 113.503 20.9749 114.157 20.5014C114.834 20.0278 115.172 19.4415 115.172 18.7425V17.2204ZM126.638 5.0436V0.477308H133.369V5.0436H126.638ZM126.638 25V7.14072H133.369V25H126.638Z" fill="#102E53"/>
</svg>
