<svg width="39" height="23" viewBox="0 0 39 23" fill="none" xmlns="http://www.w3.org/2000/svg">
<path d="M36.9976 13.1289V3.281C36.9976 2.92389 33.4146 0 33.0584 0H1.6874C1.33046 0 1.04132 0.288974 1.04132 0.64608V13.1739H3.97914C4.7056 13.1739 5.29656 13.7644 5.29656 14.4913V14.6534C5.96168 14.3189 6.70946 14.1245 7.50388 14.1245C10.0399 14.1245 12.133 16.0506 12.402 18.5156H24.0753C24.0746 18.4755 24.0695 18.4359 24.0695 18.3958C24.0695 15.6773 26.2811 13.4657 28.998 13.4657C31.1119 13.4657 32.9129 14.8051 33.613 16.6769V14.4462C33.613 13.7192 34.2034 13.1288 34.9301 13.1288H36.9976V13.1289ZM16.5221 8.52415C16.5221 8.88796 16.2268 9.1829 15.8633 9.1829H10.0997C9.73622 9.1829 9.44095 8.88805 9.44095 8.52415V2.76052C9.44095 2.39721 9.73622 2.10177 10.0997 2.10177H15.8633C16.2268 2.10177 16.5221 2.39721 16.5221 2.76052V8.52415ZM25.7436 8.52415C25.7436 8.88796 25.4484 9.1829 25.0849 9.1829H19.3214C18.958 9.1829 18.6627 8.88805 18.6627 8.52415V2.76052C18.6627 2.39721 18.958 2.10177 19.3214 2.10177H25.0849C25.4484 2.10177 25.7436 2.39721 25.7436 2.76052V8.52415ZM29.0406 9.31857C28.6597 9.31857 28.351 8.99981 28.351 8.60721V2.6783C28.351 2.28587 28.6597 1.96677 29.0406 1.96677H31.9969C32.3778 1.96677 35.4744 4.47247 35.4744 4.86524V8.60654C35.4744 8.99931 35.1657 9.3179 34.7847 9.3179H29.0405V9.31857H29.0406Z" fill="#F3B304"/>
<path d="M7.50394 15.4434C5.69257 15.4434 4.19727 16.7776 3.93632 18.517C3.91014 18.6926 3.89227 18.872 3.89227 19.0546C3.89227 21.0492 5.50915 22.6666 7.50394 22.6666C9.4984 22.6666 11.1155 21.0493 11.1155 19.0546C11.1155 18.872 11.0977 18.6926 11.0715 18.517C10.8106 16.7789 9.31532 15.4434 7.50394 15.4434Z" fill="#F3B304"/>
<path d="M28.998 14.7847C27.004 14.7847 25.387 16.402 25.387 18.3959C25.387 18.437 25.3914 18.4763 25.3927 18.517C25.4563 20.4557 27.044 22.0078 28.998 22.0078C30.953 22.0078 32.54 20.4557 32.6042 18.517C32.6056 18.4763 32.6099 18.437 32.6099 18.3959C32.6099 16.402 30.9936 14.7847 28.998 14.7847Z" fill="#F3B304"/>
<path d="M4.63785 15.0522V14.4919C4.63785 14.1284 4.34258 13.8333 3.97918 13.8333H1.04136H0.65875C0.295267 13.8333 0 14.1284 0 14.4919V17.8131C0 18.1773 0.295267 18.4719 0.65875 18.4719H0.686355C0.802146 18.4719 1.04522 18.4416 1.32186 18.3888C1.91433 18.2761 2.66252 18.0606 2.66252 17.8132L2.76791 17.7056L4.6386 15.7957V15.0522H4.63785V15.0522Z" fill="#F3B304"/>
<path d="M38.3413 13.7876H36.9976H34.93C34.5662 13.7876 34.2716 14.0829 34.2716 14.4463V17.8583C34.2716 18.2218 34.5662 18.5171 34.93 18.5171H36.3516H38.3412C38.7047 18.5171 39 18.2218 39 17.8583V14.4463C39.0001 14.0828 38.7048 13.7876 38.3413 13.7876Z" fill="#F3B304"/>
</svg>
