<svg width="34" height="34" viewBox="0 0 34 34" fill="none" xmlns="http://www.w3.org/2000/svg">
<g clip-path="url(#clip0_0_2050)">
<path d="M0.919715 17.6715C-0.558893 19.1505 0.198034 17.6715 0.163348 20.2845C0.133567 22.5512 1.52486 22.593 1.89513 22.5643C1.82253 22.2861 1.77958 21.9954 1.77958 21.6947C1.77958 19.7948 3.32532 18.2485 5.22541 18.2485C7.12523 18.2485 8.67111 19.7947 8.67111 21.6947C8.67111 21.9971 8.62843 22.2895 8.55458 22.5689C13.6969 22.5725 20.8485 22.559 26.1985 22.4773C26.1398 22.2254 26.1056 21.9643 26.1056 21.6947C26.1056 19.7948 27.6512 18.2485 29.5511 18.2485C31.4514 18.2485 32.9973 19.7947 32.9973 21.6947C32.9973 21.8865 32.9774 22.0729 32.9473 22.2567C33.3298 22.2224 33.5631 22.1842 33.6162 22.1417C34.3039 21.5916 34.0287 18.1534 33.1001 17.432C32.1717 16.7103 32.6873 16.3318 32.6536 14.9907C32.6348 14.2679 32.0381 13.2397 31.491 12.4417C31.9263 12.3152 32.3523 12.1682 32.7595 11.9589C32.8109 11.9327 32.8427 11.8968 32.8786 11.8633C33.0473 11.7065 33.0636 11.4899 32.9774 11.3012C32.9754 11.2934 32.9715 11.2864 32.9684 11.2785C32.9588 11.259 32.9501 11.2396 32.9378 11.2208C32.8582 11.0554 32.7106 10.9199 32.4811 10.899C31.8193 10.8396 31.1672 10.8166 30.53 10.6092C30.4567 10.5856 30.3908 10.5827 30.3273 10.5861L30.316 10.5547C30.316 10.5547 25.3307 9.2827 19.0392 9.42033C12.7467 9.55774 12.5751 13.3392 7.14282 13.7178C1.71077 14.0962 0.919715 17.6715 0.919715 17.6715Z" fill="#FF8900"/>
<path d="M5.22534 18.7981C3.62614 18.7981 2.32965 20.0949 2.32965 21.6941C2.32965 21.996 2.38907 22.2813 2.47498 22.5553C2.84343 23.7311 3.92801 24.5898 5.22597 24.5898C6.51882 24.5898 7.60067 23.7373 7.97304 22.5677C8.06161 22.2905 8.12216 22.0004 8.12216 21.6941C8.12153 20.0949 6.82504 18.7981 5.22534 18.7981Z" fill="#FF8900"/>
<path d="M29.5517 18.7981C27.9532 18.7981 26.6563 20.0949 26.6563 21.6941C26.6563 21.9642 26.7052 22.22 26.774 22.4683C27.1141 23.6893 28.2222 24.5901 29.5518 24.5901C30.9438 24.5901 32.1047 23.6073 32.3829 22.2984C32.4242 22.1035 32.4478 21.9022 32.4478 21.6946C32.4478 20.0949 31.1509 18.7981 29.5517 18.7981Z" fill="#FF8900"/>
</g>
<defs>
<clipPath id="clip0_0_2050">
<rect width="34" height="34" fill="white"/>
</clipPath>
</defs>
</svg>
