<svg width="24" height="24" viewBox="0 0 24 24" fill="none" xmlns="http://www.w3.org/2000/svg">
<g clip-path="url(#clip0_3751_1037)">
<path d="M4 18.0001H9.5V19.2501C9.5 19.9794 9.21027 20.6789 8.69454 21.1946C8.17882 21.7103 7.47935 22.0001 6.75 22.0001C6.02065 22.0001 5.32118 21.7103 4.80546 21.1946C4.28973 20.6789 4 19.9794 4 19.2501V18.0001ZM8.058 14.0001L8.103 13.8681C8.87 11.7621 9 11.3701 9 11.0001C9 10.2501 8.797 9.35708 8.472 8.72708C8.23 8.25708 8.06 8.12008 8 8.12008C6.72 8.12008 5.5 9.48408 5.5 11.0001C5.5 11.9591 5.575 12.7731 5.727 13.7581L5.765 14.0001H8.058ZM8 6.12008C10 6.12008 11 9.00008 11 11.0001C11 12.0001 10.5 13.0001 10 14.5001L9.5 16.0001H4C4 15.0001 3.5 13.5001 3.5 11.0001C3.5 8.50008 5.498 6.12008 8 6.12008ZM20.054 14.0981L19.837 15.3291C19.7104 16.0474 19.3035 16.686 18.7061 17.1044C18.1086 17.5228 17.3693 17.6867 16.651 17.5601C15.9327 17.4334 15.2941 17.0266 14.8757 16.4291C14.4573 15.8316 14.2934 15.0924 14.42 14.3741L14.638 13.1441L20.054 14.0981ZM19.004 9.85208C19.169 9.35208 19.305 8.95708 19.307 8.95208C19.509 8.29408 19.668 7.64908 19.792 6.94408C20.055 5.45208 19.09 3.89708 17.83 3.67408C17.771 3.66408 17.58 3.76908 17.26 4.18908C16.83 4.75408 16.476 5.59908 16.345 6.33608C16.287 6.66608 16.296 6.74108 16.615 8.59908C16.66 8.85508 16.697 9.08508 16.731 9.31608L16.751 9.45408L19.005 9.85208H19.004ZM18.178 1.70508C20.642 2.13908 22.196 4.82908 21.762 7.29108C21.328 9.75408 20.575 11.1441 20.402 12.1291L14.985 11.1741L14.753 9.61008C14.521 8.04608 14.203 6.97408 14.376 5.99008C14.723 4.02008 16.208 1.35808 18.178 1.70508Z" fill="#525978"/>
</g>
<defs>
<clipPath id="clip0_3751_1037">
<rect width="24" height="24" fill="white"/>
</clipPath>
</defs>
</svg>
