<svg width="231" height="129" viewBox="0 0 231 129" fill="none" xmlns="http://www.w3.org/2000/svg">
<path opacity="0.05" d="M14.5 -15C14.5 -15 -10.5 25 14.5 40.5C39.5 56 90.0391 56 101.988 101C113.938 146 170.251 119 192.501 110C214.75 101 230.5 110 230.5 110" stroke="white" stroke-width="5"/>
<path opacity="0.05" d="M41.4409 -16C41.4409 -16 19.5591 15.4294 41.4409 27.6083C63.3228 39.7872 107.558 39.7872 118.017 75.1453C128.476 110.503 177.766 89.2885 197.24 82.2169C216.714 75.1453 230.5 82.2169 230.5 82.2169" stroke="white" stroke-width="5"/>
<path opacity="0.05" d="M65.0733 -15C65.0733 -15 45.9267 9.63386 65.0733 19.1795C84.2199 28.7251 122.926 28.7251 132.077 56.4382C141.229 84.1513 184.358 67.5234 201.398 61.9808C218.438 56.4382 230.5 61.9808 230.5 61.9808" stroke="white" stroke-width="5"/>
<path opacity="0.05" d="M80.198 -15C80.198 -15 62.802 3.40461 80.198 10.5364C97.5941 17.6682 132.761 17.6682 141.076 38.3734C149.391 59.0785 188.576 46.6554 204.058 42.5144C219.54 38.3734 230.5 42.5144 230.5 42.5144" stroke="white" stroke-width="5"/>
<path opacity="0.05" d="M92.4869 -18C92.4869 -18 76.5131 -2.42687 92.4869 3.60772C108.461 9.6423 140.753 9.64231 148.387 27.1621C156.022 44.6818 192.004 34.17 206.22 30.666C220.437 27.1621 230.5 30.666 230.5 30.666" stroke="white" stroke-width="5"/>
<path opacity="0.05" d="M103.83 -16C103.83 -16 89.1696 -4.39094 103.83 0.107571C118.491 4.60608 148.129 4.60608 155.136 17.6663C162.144 30.7265 195.168 22.8904 208.216 20.2783C221.264 17.6663 230.5 20.2783 230.5 20.2783" stroke="white" stroke-width="5"/>
</svg>
