<svg width="332" height="199" viewBox="0 0 332 199" fill="none" xmlns="http://www.w3.org/2000/svg">
<path d="M146.107 24.9504V31.1787H132.089L137.882 21.0156L146.107 24.9504Z" fill="white" stroke="#2F36A5" stroke-width="0.389544" stroke-linecap="round" stroke-linejoin="round"/>
<path d="M146.107 31.1788V24.9505L138.047 21.019V22.4264C138.047 23.3263 138.261 24.2132 138.672 25.0139C139.083 25.8145 139.678 26.5058 140.409 27.0307L146.107 31.1788Z" fill="#515BF6"/>
<path d="M137.448 19.1354V16.6649C137.448 16.0861 137.611 15.519 137.92 15.0294C138.229 14.5397 138.67 14.1474 139.192 13.8979L142.696 12.222C143.055 12.0505 143.447 11.9582 143.845 11.9516C144.243 11.9449 144.638 12.0239 145.002 12.1833C145.367 12.3426 145.693 12.5786 145.958 12.8752C146.224 13.1717 146.422 13.5219 146.54 13.902L146.87 14.9726L137.448 19.1354Z" fill="white" stroke="#2F36A5" stroke-width="0.389544" stroke-linecap="round" stroke-linejoin="round"/>
<path d="M137.448 19.1354L150.248 13.4771" stroke="#2F36A5" stroke-width="0.389544" stroke-linecap="round" stroke-linejoin="round"/>
<path d="M137.397 22.8908H139.076L139.378 23.9004C139.49 24.2755 139.72 24.6044 140.035 24.838C140.349 25.0716 140.73 25.1974 141.121 25.1966H145.597C145.913 25.1966 146.225 25.1296 146.512 25.0001C146.8 24.8707 147.057 24.6817 147.266 24.4456C147.475 24.2096 147.632 23.9318 147.726 23.6307C147.82 23.3296 147.849 23.012 147.811 22.6989L146.877 14.9751L137.892 18.9206H137.398C136.875 18.9203 136.373 19.1263 136.001 19.4937C135.63 19.8611 135.418 20.3604 135.412 20.883C135.409 21.1456 135.458 21.4061 135.557 21.6495C135.655 21.8929 135.801 22.1144 135.985 22.3011C136.17 22.4878 136.39 22.6361 136.632 22.7373C136.874 22.8385 137.134 22.8907 137.397 22.8908Z" fill="white" stroke="#2F36A5" stroke-width="0.389544" stroke-linecap="round" stroke-linejoin="round"/>
<path d="M137.86 19.1247C137.953 19.1247 138.045 19.143 138.13 19.1785C138.216 19.214 138.294 19.2661 138.359 19.3317C138.425 19.3973 138.477 19.4752 138.512 19.5609C138.548 19.6466 138.566 19.7385 138.566 19.8313V20.9364H138.781C139.065 20.9364 139.337 20.8236 139.538 20.6229C139.738 20.4221 139.851 20.1498 139.851 19.8658V19.4368C139.851 19.1763 139.919 18.9203 140.048 18.694C140.177 18.4678 140.363 18.279 140.587 18.1463L142.336 17.1104L137.86 19.1247Z" fill="#515BF6"/>
<path d="M147.05 17.187C147.05 17.187 145.047 16.9079 144.8 17.8755C144.646 18.4758 146.519 21.4874 145.086 21.4874" stroke="#2F36A5" stroke-width="0.389544" stroke-miterlimit="10" stroke-linecap="round"/>
<path d="M142.869 19.9903C143.085 19.9903 143.261 19.751 143.261 19.4559C143.261 19.1607 143.085 18.9214 142.869 18.9214C142.652 18.9214 142.477 19.1607 142.477 19.4559C142.477 19.751 142.652 19.9903 142.869 19.9903Z" fill="#515BF6"/>
<path d="M146.523 19.9903C146.739 19.9903 146.915 19.751 146.915 19.4559C146.915 19.1607 146.739 18.9214 146.523 18.9214C146.306 18.9214 146.131 19.1607 146.131 19.4559C146.131 19.751 146.306 19.9903 146.523 19.9903Z" fill="#515BF6"/>
<path d="M137.882 20.9366C137.882 20.6625 137.773 20.3996 137.579 20.2058C137.385 20.012 137.122 19.9031 136.848 19.9031" stroke="#2F36A5" stroke-width="0.389544" stroke-miterlimit="10" stroke-linecap="round"/>
<path d="M144.793 22.6766C144.793 22.6766 143.146 22.6766 143.155 21.8679" stroke="#2F36A5" stroke-width="0.389544" stroke-miterlimit="10" stroke-linecap="round"/>
<path d="M176.474 58.4699C175.582 57.7991 174.973 56.8189 174.766 55.7218L172.287 42.6847C171.663 39.4464 169.931 36.5264 167.388 34.4266C164.846 32.3268 161.651 31.1783 158.353 31.1785H122.036C118.616 31.1785 115.248 32.0148 112.226 33.6143C109.203 35.2139 106.618 37.5282 104.694 40.3558L89.5497 62.6179C87.425 65.7423 86.6369 69.2061 86.9218 72.5051C87.4209 78.2911 92.3348 82.7002 98.1422 82.7002H100.067L111.715 68.5571C110.614 68.3158 110.057 67.3177 110.633 66.4539L117.493 56.1599C118.626 54.461 121.207 54.7599 121.924 56.6688L129.994 77.3325C129.994 77.3325 163.376 77.3325 163.376 77.3391L176.474 58.4699Z" fill="white" stroke="#0101A6" stroke-width="0.389544" stroke-miterlimit="10"/>
<path d="M103.663 44.9228L101.124 47.4617L103.663 50.0006L106.202 47.4617L103.663 44.9228Z" fill="#0101A6"/>
<path d="M101.673 47.4628L99.1345 50.0017L98.5374 49.4046L100.593 46.3823L101.399 47.1886L101.673 47.4628Z" fill="#0101A6"/>
<path d="M108.193 44.9225L105.654 47.4614L108.193 50.0003L110.732 47.4614L108.193 44.9225Z" fill="#0101A6"/>
<path d="M112.804 44.9228L110.266 47.4617L112.804 50.0006L115.343 47.4617L112.804 44.9228Z" fill="#0101A6"/>
<path d="M117.333 44.9228L114.795 47.4617L117.333 50.0006L119.872 47.4617L117.333 44.9228Z" fill="#0101A6"/>
<path d="M121.863 44.9225L119.324 47.4614L121.863 50.0003L124.402 47.4614L121.863 44.9225Z" fill="#0101A6"/>
<path d="M126.392 44.9225L123.854 47.4614L126.392 50.0003L128.931 47.4614L126.392 44.9225Z" fill="#0101A6"/>
<path d="M131.004 44.9228L128.465 47.4617L131.004 50.0006L133.543 47.4617L131.004 44.9228Z" fill="#0101A6"/>
<path d="M135.534 44.9228L132.995 47.4617L135.534 50.0006L138.072 47.4617L135.534 44.9228Z" fill="#0101A6"/>
<path d="M139.981 44.9233L137.442 47.4622L139.981 50.0011L142.52 47.4622L139.981 44.9233Z" fill="#0101A6"/>
<path d="M144.51 44.9233L141.971 47.4622L144.51 50.0011L147.049 47.4622L144.51 44.9233Z" fill="#0101A6"/>
<path d="M149.122 44.9233L146.583 47.4622L149.122 50.0011L151.66 47.4622L149.122 44.9233Z" fill="#0101A6"/>
<path d="M153.651 44.9233L151.112 47.4622L153.651 50.0011L156.19 47.4622L153.651 44.9233Z" fill="#0101A6"/>
<path d="M158.18 44.9233L155.641 47.4622L158.18 50.0011L160.719 47.4622L158.18 44.9233Z" fill="#0101A6"/>
<path d="M162.71 44.923L160.171 47.4619L162.71 50.0008L165.249 47.4619L162.71 44.923Z" fill="#0101A6"/>
<path d="M167.321 44.9233L164.782 47.4622L167.321 50.0011L169.86 47.4622L167.321 44.9233Z" fill="#0101A6"/>
<path d="M173.386 48.4666L171.851 50.0016L169.312 47.4627L171.851 44.9238L172.002 45.0745L172.915 45.9878L173.386 48.4666Z" fill="#0101A6"/>
<path d="M106.203 42.6864L103.664 45.2254L102.305 43.8666L104.361 40.8442L105.929 42.4122L106.203 42.6864Z" fill="#0101A6"/>
<path d="M108.193 40.1469L105.654 42.6858L108.193 45.2247L110.732 42.6858L108.193 40.1469Z" fill="#0101A6"/>
<path d="M112.805 40.1462L110.266 42.6851L112.805 45.224L115.344 42.6851L112.805 40.1462Z" fill="#0101A6"/>
<path d="M117.334 40.1462L114.796 42.6851L117.334 45.224L119.873 42.6851L117.334 40.1462Z" fill="#0101A6"/>
<path d="M121.864 40.1469L119.325 42.6858L121.864 45.2247L124.403 42.6858L121.864 40.1469Z" fill="#0101A6"/>
<path d="M126.392 40.1469L123.854 42.6858L126.392 45.2247L128.931 42.6858L126.392 40.1469Z" fill="#0101A6"/>
<path d="M131.004 40.1462L128.466 42.6851L131.004 45.224L133.543 42.6851L131.004 40.1462Z" fill="#0101A6"/>
<path d="M135.534 40.1469L132.995 42.6858L135.534 45.2247L138.073 42.6858L135.534 40.1469Z" fill="#0101A6"/>
<path d="M139.98 40.1467L137.442 42.6855L139.98 45.2244L142.519 42.6856L139.98 40.1467Z" fill="#0101A6"/>
<path d="M144.51 40.1467L141.971 42.6855L144.51 45.2244L147.049 42.6856L144.51 40.1467Z" fill="#0101A6"/>
<path d="M149.122 40.1467L146.583 42.6855L149.122 45.2244L151.66 42.6856L149.122 40.1467Z" fill="#0101A6"/>
<path d="M153.651 40.1467L151.112 42.6855L153.651 45.2244L156.19 42.6856L153.651 40.1467Z" fill="#0101A6"/>
<path d="M158.18 40.1467L155.641 42.6855L158.18 45.2244L160.719 42.6856L158.18 40.1467Z" fill="#0101A6"/>
<path d="M162.71 40.1464L160.171 42.6853L162.71 45.2242L165.249 42.6853L162.71 40.1464Z" fill="#0101A6"/>
<path d="M167.321 40.1467L164.782 42.6855L167.321 45.2244L169.86 42.6856L167.321 40.1467Z" fill="#0101A6"/>
<path d="M172.623 44.4537L171.851 45.2253L169.312 42.6864L171.633 40.3657C171.916 41.1188 172.135 41.8946 172.287 42.6848L172.623 44.4537Z" fill="#0101A6"/>
<path d="M110.734 37.9923L108.195 40.5312L106.136 38.4724C106.918 37.563 107.777 36.7227 108.702 35.9607L110.5 37.7584L110.734 37.9923Z" fill="#0101A6"/>
<path d="M112.804 35.4526L110.266 37.9915L112.804 40.5303L115.343 37.9915L112.804 35.4526Z" fill="#0101A6"/>
<path d="M117.334 35.4526L114.795 37.9915L117.334 40.5303L119.873 37.9915L117.334 35.4526Z" fill="#0101A6"/>
<path d="M121.863 35.4526L119.325 37.9915L121.863 40.5303L124.402 37.9915L121.863 35.4526Z" fill="#0101A6"/>
<path d="M126.392 35.4523L123.854 37.9912L126.392 40.5301L128.931 37.9912L126.392 35.4523Z" fill="#0101A6"/>
<path d="M131.004 35.4526L128.465 37.9915L131.004 40.5303L133.543 37.9915L131.004 35.4526Z" fill="#0101A6"/>
<path d="M135.534 35.4526L132.995 37.9915L135.534 40.5303L138.072 37.9915L135.534 35.4526Z" fill="#0101A6"/>
<path d="M139.981 35.4521L137.442 37.991L139.981 40.5299L142.52 37.991L139.981 35.4521Z" fill="#0101A6"/>
<path d="M144.511 35.4528L141.972 37.9917L144.511 40.5306L147.049 37.9917L144.511 35.4528Z" fill="#0101A6"/>
<path d="M149.122 35.4523L146.583 37.9912L149.122 40.5301L151.661 37.9912L149.122 35.4523Z" fill="#0101A6"/>
<path d="M153.651 35.4523L151.112 37.9912L153.651 40.5301L156.19 37.9912L153.651 35.4523Z" fill="#0101A6"/>
<path d="M158.181 35.4521L155.642 37.991L158.181 40.5299L160.72 37.991L158.181 35.4521Z" fill="#0101A6"/>
<path d="M162.71 35.4528L160.171 37.9917L162.71 40.5306L165.249 37.9917L162.71 35.4528Z" fill="#0101A6"/>
<path d="M167.322 35.4523L164.783 37.9912L167.322 40.5301L169.861 37.9912L167.322 35.4523Z" fill="#0101A6"/>
<path d="M171.601 40.2809L169.312 37.9924L170.018 37.2866C170.664 38.2174 171.196 39.2228 171.601 40.2809Z" fill="#0101A6"/>
<path d="M115.345 33.2159L112.807 35.7548L111.228 34.1777C112.316 33.5225 113.461 32.9685 114.65 32.5225L115.07 32.9416L115.345 33.2159Z" fill="#0101A6"/>
<path d="M119.875 33.2159L117.336 35.7548L114.797 33.2159L115.922 32.0893C116.667 31.8616 117.424 31.676 118.19 31.5334L119.598 32.9417L119.875 33.2159Z" fill="#0101A6"/>
<path d="M124.404 33.2158L121.865 35.7548L119.327 33.2158L121.352 31.19C121.58 31.1829 121.808 31.179 122.036 31.1785H122.365L124.128 32.9416L124.404 33.2158Z" fill="#0101A6"/>
<path d="M128.932 33.2158L126.393 35.7548L123.855 33.2158L125.892 31.1785H126.895L128.699 32.9828L128.932 33.2158Z" fill="#0101A6"/>
<path d="M133.543 33.2158L131.004 35.7548L128.466 33.2158L130.503 31.1785H131.506L133.269 32.9416L133.543 33.2158Z" fill="#0101A6"/>
<path d="M138.073 33.2158L135.534 35.7548L132.995 33.2158L135.033 31.1785H136.036L137.758 32.9004L138.073 33.2158Z" fill="#0101A6"/>
<path d="M142.52 33.2158L139.981 35.7548L137.442 33.2158L139.479 31.1785H140.483L142.246 32.9416L142.52 33.2158Z" fill="#0101A6"/>
<path d="M147.049 33.2158L144.511 35.7548L141.972 33.2158L144.009 31.1785H145.012L146.816 32.9828L147.049 33.2158Z" fill="#0101A6"/>
<path d="M151.661 33.2158L149.122 35.7548L146.583 33.2158L148.621 31.1785H149.624L151.387 32.9416L151.661 33.2158Z" fill="#0101A6"/>
<path d="M156.19 33.2158L153.652 35.7548L151.113 33.2158L153.15 31.1785H154.153L155.916 32.9416L156.19 33.2158Z" fill="#0101A6"/>
<path d="M160.721 33.2158L158.182 35.7548L155.643 33.2158L157.681 31.1785H158.354C158.465 31.1785 158.577 31.1785 158.684 31.1826L160.721 33.2158Z" fill="#0101A6"/>
<path d="M165.25 33.2159L162.712 35.7548L160.173 33.2159L161.792 31.5994C162.805 31.8514 163.788 32.2151 164.721 32.6839L165.25 33.2159Z" fill="#0101A6"/>
<path d="M168.06 35.0186L167.472 35.6058L167.322 35.7565L164.783 33.2176L165.016 32.9845L165.11 32.8906C166.18 33.4713 167.171 34.1864 168.06 35.0186Z" fill="#0101A6"/>
<path d="M128.932 66.4036L126.625 68.7103L125.199 65.058L126.393 63.8647L128.932 66.4036Z" fill="#0101A6"/>
<path d="M131.004 63.8642L128.466 66.4031L131.004 68.942L133.543 66.4031L131.004 63.8642Z" fill="#0101A6"/>
<path d="M135.534 63.8639L132.995 66.4028L135.534 68.9417L138.072 66.4028L135.534 63.8639Z" fill="#0101A6"/>
<path d="M140.063 63.8639L137.524 66.4028L140.063 68.9417L142.602 66.4028L140.063 63.8639Z" fill="#0101A6"/>
<path d="M144.593 63.8639L142.054 66.4028L144.593 68.9417L147.131 66.4028L144.593 63.8639Z" fill="#0101A6"/>
<path d="M149.204 63.8639L146.665 66.4028L149.204 68.9417L151.743 66.4028L149.204 63.8639Z" fill="#0101A6"/>
<path d="M153.733 63.8639L151.194 66.4028L153.733 68.9417L156.272 66.4028L153.733 63.8639Z" fill="#0101A6"/>
<path d="M158.18 63.8637L155.641 66.4026L158.18 68.9415L160.719 66.4026L158.18 63.8637Z" fill="#0101A6"/>
<path d="M162.709 63.8635L160.17 66.4023L162.709 68.9412L165.248 66.4023L162.709 63.8635Z" fill="#0101A6"/>
<path d="M167.322 63.8637L164.783 66.4026L167.322 68.9415L169.861 66.4026L167.322 63.8637Z" fill="#0101A6"/>
<path d="M172.369 64.3828L170.288 67.3796L169.312 66.4037L171.851 63.864L172.369 64.3828Z" fill="#0101A6"/>
<path d="M124.403 61.6273L124.129 61.9015L124.012 62.0176L123.864 61.6372L123.854 61.6273L123.858 61.6232L123.513 60.7371L124.129 61.3531L124.403 61.6273Z" fill="#0101A6"/>
<path d="M126.393 59.0878L123.855 61.6267L126.393 64.1656L128.932 61.6267L126.393 59.0878Z" fill="#0101A6"/>
<path d="M131.004 59.0876L128.465 61.6265L131.004 64.1654L133.543 61.6265L131.004 59.0876Z" fill="#0101A6"/>
<path d="M135.534 59.0876L132.995 61.6265L135.534 64.1654L138.072 61.6265L135.534 59.0876Z" fill="#0101A6"/>
<path d="M140.063 59.0873L137.524 61.6262L140.063 64.1651L142.602 61.6262L140.063 59.0873Z" fill="#0101A6"/>
<path d="M144.593 59.0873L142.054 61.6262L144.593 64.1651L147.131 61.6262L144.593 59.0873Z" fill="#0101A6"/>
<path d="M149.204 59.0876L146.665 61.6265L149.204 64.1654L151.743 61.6265L149.204 59.0876Z" fill="#0101A6"/>
<path d="M153.733 59.0873L151.194 61.6262L153.733 64.1651L156.272 61.6262L153.733 59.0873Z" fill="#0101A6"/>
<path d="M158.181 59.0878L155.642 61.6267L158.181 64.1656L160.72 61.6267L158.181 59.0878Z" fill="#0101A6"/>
<path d="M162.71 59.0878L160.171 61.6267L162.71 64.1656L165.249 61.6267L162.71 59.0878Z" fill="#0101A6"/>
<path d="M167.322 59.0873L164.783 61.6262L167.322 64.1651L169.861 61.6262L167.322 59.0873Z" fill="#0101A6"/>
<path d="M174.308 61.545L172.246 64.5607L169.312 61.6274L171.851 59.0876L174.308 61.545Z" fill="#0101A6"/>
<path d="M124.405 56.9332L122.696 58.642L121.926 56.6655C121.729 56.1321 121.354 55.6831 120.864 55.3949L121.864 54.3943L124.405 56.9332Z" fill="#0101A6"/>
<path d="M126.393 54.3937L123.855 56.9326L126.393 59.4715L128.932 56.9326L126.393 54.3937Z" fill="#0101A6"/>
<path d="M131.004 54.3937L128.466 56.9326L131.004 59.4715L133.543 56.9326L131.004 54.3937Z" fill="#0101A6"/>
<path d="M135.534 54.3937L132.995 56.9326L135.534 59.4715L138.073 56.9326L135.534 54.3937Z" fill="#0101A6"/>
<path d="M140.064 54.3937L137.525 56.9326L140.064 59.4715L142.602 56.9326L140.064 54.3937Z" fill="#0101A6"/>
<path d="M144.592 54.3937L142.053 56.9326L144.592 59.4715L147.131 56.9326L144.592 54.3937Z" fill="#0101A6"/>
<path d="M149.205 54.3937L146.666 56.9326L149.205 59.4715L151.743 56.9326L149.205 54.3937Z" fill="#0101A6"/>
<path d="M153.734 54.3937L151.195 56.9326L153.734 59.4715L156.272 56.9326L153.734 54.3937Z" fill="#0101A6"/>
<path d="M158.18 54.3935L155.641 56.9324L158.18 59.4713L160.719 56.9324L158.18 54.3935Z" fill="#0101A6"/>
<path d="M162.71 54.3935L160.171 56.9324L162.71 59.4713L165.249 56.9324L162.71 54.3935Z" fill="#0101A6"/>
<path d="M167.321 54.3935L164.782 56.9324L167.321 59.4713L169.86 56.9324L167.321 54.3935Z" fill="#0101A6"/>
<path d="M171.851 54.3935L169.312 56.9324L171.851 59.4713L174.39 56.9324L171.851 54.3935Z" fill="#0101A6"/>
<path d="M175.996 59.0876L173.841 56.9333L174.816 55.9583C175.062 56.9617 175.648 57.8492 176.474 58.47L175.996 59.0876Z" fill="#0101A6"/>
<path d="M121.863 49.6171L119.325 52.156L121.863 54.6949L124.402 52.156L121.863 49.6171Z" fill="#0101A6"/>
<path d="M126.393 49.6171L123.854 52.156L126.393 54.6949L128.932 52.156L126.393 49.6171Z" fill="#0101A6"/>
<path d="M131.004 49.6174L128.466 52.1562L131.004 54.6951L133.543 52.1563L131.004 49.6174Z" fill="#0101A6"/>
<path d="M135.534 49.6171L132.995 52.156L135.534 54.6949L138.072 52.156L135.534 49.6171Z" fill="#0101A6"/>
<path d="M140.063 49.6171L137.524 52.156L140.063 54.6949L142.602 52.156L140.063 49.6171Z" fill="#0101A6"/>
<path d="M144.593 49.6171L142.054 52.156L144.593 54.6949L147.131 52.156L144.593 49.6171Z" fill="#0101A6"/>
<path d="M149.204 49.6171L146.665 52.156L149.204 54.6949L151.743 52.156L149.204 49.6171Z" fill="#0101A6"/>
<path d="M153.734 49.6171L151.195 52.156L153.734 54.6949L156.272 52.156L153.734 49.6171Z" fill="#0101A6"/>
<path d="M158.18 49.6169L155.641 52.1558L158.18 54.6947L160.719 52.1558L158.18 49.6169Z" fill="#0101A6"/>
<path d="M162.709 49.6169L160.17 52.1558L162.709 54.6947L165.248 52.1558L162.709 49.6169Z" fill="#0101A6"/>
<path d="M167.322 49.6169L164.783 52.1558L167.322 54.6947L169.861 52.1558L167.322 49.6169Z" fill="#0101A6"/>
<path d="M174.136 52.4105L171.851 54.6957L169.312 52.1568L171.851 49.6179L172.043 49.8098L174.017 51.7838L174.116 51.8826L174.048 51.9501L174.136 52.4105Z" fill="#0101A6"/>
<path d="M174.145 52.4608L173.841 52.1569L174.048 51.9502L174.136 52.4105L174.145 52.4608Z" fill="#0101A6"/>
<path d="M133.544 75.9564L132.168 77.3325H129.993L129.177 75.2449L131.005 73.4175L133.544 75.9564Z" fill="#0101A6"/>
<path d="M138.073 75.9564L136.697 77.3325H134.371L132.995 75.9564L135.534 73.4175L138.073 75.9564Z" fill="#0101A6"/>
<path d="M142.602 75.9564L141.226 77.3325H138.901L137.525 75.9564L140.064 73.4175L142.602 75.9564Z" fill="#0101A6"/>
<path d="M147.131 75.9564L145.755 77.3325H143.43L142.054 75.9564L144.593 73.4175L147.131 75.9564Z" fill="#0101A6"/>
<path d="M151.744 75.9564L150.367 77.3325H148.042L146.666 75.9564L149.205 73.4175L151.744 75.9564Z" fill="#0101A6"/>
<path d="M156.273 75.9564L154.897 77.3325H152.571L151.195 75.9564L153.734 73.4175L156.273 75.9564Z" fill="#0101A6"/>
<path d="M160.72 75.9564L159.343 77.3325H157.018L155.642 75.9564L158.181 73.4175L160.72 75.9564Z" fill="#0101A6"/>
<path d="M164.709 75.417L163.386 77.3358L161.547 77.3325L160.171 75.9564L162.71 73.4175L164.709 75.417Z" fill="#0101A6"/>
<path d="M128.932 71.18L127.967 72.1452L126.731 68.9788L128.699 70.947L128.932 71.18Z" fill="#0101A6"/>
<path d="M131.004 68.6406L128.466 71.1794L131.004 73.7183L133.543 71.1794L131.004 68.6406Z" fill="#0101A6"/>
<path d="M135.534 68.6406L132.995 71.1794L135.534 73.7183L138.073 71.1794L135.534 68.6406Z" fill="#0101A6"/>
<path d="M140.064 68.6406L137.525 71.1794L140.064 73.7183L142.602 71.1794L140.064 68.6406Z" fill="#0101A6"/>
<path d="M144.592 68.6406L142.053 71.1794L144.592 73.7183L147.131 71.1794L144.592 68.6406Z" fill="#0101A6"/>
<path d="M149.204 68.6406L146.665 71.1794L149.204 73.7183L151.743 71.1794L149.204 68.6406Z" fill="#0101A6"/>
<path d="M153.734 68.6406L151.195 71.1794L153.734 73.7183L156.272 71.1794L153.734 68.6406Z" fill="#0101A6"/>
<path d="M158.18 68.6403L155.641 71.1792L158.18 73.7181L160.719 71.1792L158.18 68.6403Z" fill="#0101A6"/>
<path d="M162.71 68.6401L160.171 71.179L162.71 73.7179L165.249 71.179L162.71 68.6401Z" fill="#0101A6"/>
<path d="M166.475 72.8724L164.783 71.1801L167.322 68.6404L168.556 69.8748L166.475 72.8724Z" fill="#0101A6"/>
<path d="M88.0043 66.4038L87.7301 66.678L87.4954 66.9127C87.5308 66.7933 87.5678 66.6739 87.6074 66.5553C87.6518 66.4186 87.698 66.2827 87.7474 66.1436L88.0043 66.4038Z" fill="#0101A6"/>
<path d="M92.5342 66.4036L89.9953 68.9425L87.6071 66.5543C87.6515 66.4176 87.6976 66.2817 87.747 66.1426L87.7298 66.1253L87.7668 66.0882L89.8437 64.0113L89.9944 63.8606L92.5342 66.4036Z" fill="#0101A6"/>
<path d="M94.6048 63.8642L92.0659 66.4031L94.6048 68.942L97.1437 66.4031L94.6048 63.8642Z" fill="#0101A6"/>
<path d="M99.1343 63.8642L96.5954 66.4031L99.1343 68.942L101.673 66.4031L99.1343 63.8642Z" fill="#0101A6"/>
<path d="M103.664 63.8639L101.125 66.4028L103.664 68.9417L106.203 66.4028L103.664 63.8639Z" fill="#0101A6"/>
<path d="M110.692 66.3633L110.633 66.4514C110.605 66.4942 110.579 66.5338 110.556 66.5799L108.193 68.9426L105.654 66.4036L108.193 63.8647L110.499 66.1706L110.692 66.3633Z" fill="#0101A6"/>
<path d="M111.461 65.2087L110.692 66.3617L110.632 66.4498C110.604 66.4926 110.579 66.5321 110.556 66.5783C110.543 66.603 110.53 66.6285 110.518 66.654L110.266 66.402L111.461 65.2087Z" fill="#0101A6"/>
<path d="M92.5342 61.6271L89.9953 64.166L89.1191 63.2898C89.2558 63.0642 89.3999 62.8402 89.5514 62.6178L91.1598 60.2527L92.5342 61.6271Z" fill="#0101A6"/>
<path d="M94.6048 59.0876L92.0659 61.6265L94.6048 64.1654L97.1437 61.6265L94.6048 59.0876Z" fill="#0101A6"/>
<path d="M99.1343 59.0876L96.5954 61.6265L99.1343 64.1654L101.673 61.6265L99.1343 59.0876Z" fill="#0101A6"/>
<path d="M103.664 59.0876L101.125 61.6265L103.664 64.1654L106.203 61.6265L103.664 59.0876Z" fill="#0101A6"/>
<path d="M108.193 59.0873L105.654 61.6262L108.193 64.1651L110.732 61.6262L108.193 59.0873Z" fill="#0101A6"/>
<path d="M114.446 60.7296L112.415 63.7767L110.266 61.6273L112.805 59.0884L114.446 60.7296Z" fill="#0101A6"/>
<path d="M97.1441 56.9332L94.6052 59.4721L92.8701 57.7369L94.9256 54.7146L97.1441 56.9332Z" fill="#0101A6"/>
<path d="M99.1348 54.393L96.5959 56.9319L99.1348 59.4708L101.674 56.9319L99.1348 54.393Z" fill="#0101A6"/>
<path d="M103.664 54.3937L101.125 56.9326L103.664 59.4715L106.203 56.9326L103.664 54.3937Z" fill="#0101A6"/>
<path d="M108.193 54.3937L105.654 56.9326L108.193 59.4715L110.732 56.9326L108.193 54.3937Z" fill="#0101A6"/>
<path d="M112.805 54.393L110.266 56.9319L112.805 59.4708L115.344 56.9319L112.805 54.393Z" fill="#0101A6"/>
<path d="M118.319 55.3785C117.988 55.5722 117.706 55.8397 117.495 56.16L116.105 58.2419L114.796 56.9325L117.334 54.3936L118.319 55.3785Z" fill="#0101A6"/>
<path d="M98.6925 49.1758L101.674 52.1569L99.1347 54.6958L96.637 52.1981L98.6925 49.1758Z" fill="#0101A6"/>
<path d="M103.664 49.6171L101.125 52.156L103.664 54.6949L106.203 52.156L103.664 49.6171Z" fill="#0101A6"/>
<path d="M108.193 49.6171L105.654 52.156L108.193 54.6949L110.732 52.156L108.193 49.6171Z" fill="#0101A6"/>
<path d="M112.804 49.6174L110.266 52.1562L112.804 54.6951L115.343 52.1563L112.804 49.6174Z" fill="#0101A6"/>
<path d="M117.334 49.6174L114.795 52.1562L117.334 54.6951L119.873 52.1563L117.334 49.6174Z" fill="#0101A6"/>
<path d="M88.0047 75.9563L87.8605 76.1005C87.8029 75.9736 87.7477 75.8452 87.6958 75.7159C87.6785 75.678 87.6637 75.6393 87.6481 75.6006L88.0047 75.9563Z" fill="#0101A6"/>
<path d="M87.6951 75.7159L89.9935 73.4175L92.5324 75.9564L89.6361 78.8527L87.6951 75.7159Z" fill="#0101A6"/>
<path d="M94.6053 73.4164L92.0664 75.9553L94.6053 78.4942L97.1442 75.9553L94.6053 73.4164Z" fill="#0101A6"/>
<path d="M99.1348 73.4164L96.5959 75.9553L99.1348 78.4942L101.674 75.9553L99.1348 73.4164Z" fill="#0101A6"/>
<path d="M97.1457 80.8153L95.5604 82.4005C94.4373 82.1383 93.3611 81.7053 92.3693 81.1167L92.0679 80.8153L94.6068 78.2764L97.1457 80.8153Z" fill="#0101A6"/>
<path d="M101.674 80.8153L101.355 81.134L99.7911 82.6978H98.4785L96.5959 80.8153L99.1348 78.2764L99.2443 78.3859L101.643 80.7848L101.674 80.8153Z" fill="#0101A6"/>
<path d="M105.882 75.636L103.589 78.4204L101.125 75.9564L103.664 73.4175L105.882 75.636Z" fill="#0101A6"/>
<path d="M88.0047 71.1802L87.7305 71.4544L86.907 72.2779C86.8538 71.5473 86.8538 70.8138 86.907 70.0833L87.7305 70.9068L88.0047 71.1802Z" fill="#0101A6"/>
<path d="M89.9937 68.6406L87.4548 71.1794L89.9937 73.7183L92.5326 71.1794L89.9937 68.6406Z" fill="#0101A6"/>
<path d="M94.6048 68.6401L92.0659 71.179L94.6048 73.7179L97.1437 71.179L94.6048 68.6401Z" fill="#0101A6"/>
<path d="M99.1348 68.6406L96.5959 71.1794L99.1348 73.7183L101.674 71.1794L99.1348 68.6406Z" fill="#0101A6"/>
<path d="M103.664 68.6406L101.125 71.1794L103.664 73.7183L106.203 71.1794L103.664 68.6406Z" fill="#0101A6"/>
<path d="M110.085 70.5327L107.792 73.3179L105.654 71.18L108.193 68.6411L108.344 68.7918L110.085 70.5327Z" fill="#0101A6"/>
<path d="M163.371 77.3326V50.8516" stroke="#2F36A5" stroke-width="0.389544" stroke-linecap="round" stroke-linejoin="round"/>
<path d="M146.272 30.9314V48.7976L138.293 30.9314H146.272Z" fill="#515BF6"/>
<path d="M151.799 31.4255H146.272V27.7114C147.293 27.7287 148.27 28.1244 149.015 28.8215L151.799 31.4255Z" fill="#7EBAD2"/>
<path d="M138.54 31.4256L137.654 28.9171C137.529 28.5646 137.298 28.2594 136.992 28.0433C136.687 27.8273 136.322 27.7111 135.948 27.7107H129.162C128.118 27.7107 127.112 28.1079 126.349 28.8216L123.566 31.4256H138.54Z" fill="#7EBAD2"/>
<path d="M134.111 31.4256L136.51 28.5548C136.581 28.4709 136.673 28.4071 136.777 28.3699C136.88 28.3326 136.992 28.3232 137.1 28.3425C137.209 28.3619 137.31 28.4093 137.394 28.4801C137.479 28.5508 137.543 28.6425 137.581 28.7458L138.54 31.4256H134.111Z" fill="#515BF6"/>
<path d="M150.627 47.3665H158.679V52.2631C158.679 52.5821 158.552 52.8879 158.327 53.1133C158.101 53.3388 157.795 53.4654 157.476 53.4654H151.827C151.508 53.4654 151.202 53.3387 150.976 53.113C150.751 52.8874 150.624 52.5814 150.624 52.2623V47.3665H150.627Z" fill="white" stroke="#2F36A5" stroke-width="0.389544" stroke-linecap="round" stroke-linejoin="round"/>
<path d="M158.68 45.7251H150.628V47.3655H158.68V45.7251Z" fill="white" stroke="#2F36A5" stroke-width="0.389544" stroke-linecap="round" stroke-linejoin="round"/>
<path d="M169.605 193.023H148.179C146.386 193.023 144.909 191.589 144.711 189.85H147.894C149.035 189.85 150.166 189.635 151.227 189.218L154.561 187.905C156.563 187.117 158.697 186.712 160.849 186.712H163.376L169.605 193.023Z" fill="#515BF6"/>
<path d="M113.945 193.019H87.9476C87.0982 193.019 86.2794 192.703 85.6512 192.131C85.0229 191.56 84.6305 190.774 84.5505 189.929H92.3204C93.4612 189.929 94.5917 189.714 95.6532 189.296L98.9868 187.984C100.99 187.196 103.123 186.791 105.275 186.791H107.967L113.945 193.019Z" fill="#515BF6"/>
<path d="M163.376 186.711H160.849C158.697 186.711 156.563 187.115 154.56 187.903L151.227 189.216C150.165 189.634 149.035 189.848 147.894 189.848H144.71C144.695 189.715 144.687 189.581 144.687 189.447V102.084C144.687 101.267 143.563 101.043 143.249 101.798L107.967 186.793H105.275C103.123 186.793 100.99 187.198 98.987 187.986L95.6534 189.298C94.5919 189.716 93.4614 189.931 92.3206 189.931H84.5507C84.5004 189.385 84.5829 188.835 84.7912 188.328L129.992 77.3328H163.372V186.711H163.376Z" fill="#515BF6"/>
<path d="M163.372 77.3328V81.5327H128.282L129.992 77.3328H163.372Z" stroke="#2F36A5" stroke-width="0.389544" stroke-linecap="round" stroke-linejoin="round"/>
<path d="M149.69 77.3328H146.424C146.16 77.3328 145.945 77.5473 145.945 77.8121V81.0781C145.945 81.3428 146.16 81.5574 146.424 81.5574H149.69C149.955 81.5574 150.17 81.3428 150.17 81.0781V77.8121C150.17 77.5473 149.955 77.3328 149.69 77.3328Z" stroke="#2F36A5" stroke-width="0.389544" stroke-linecap="round" stroke-linejoin="round"/>
<path d="M145.945 79.4326H148.057" stroke="#2F36A5" stroke-width="0.389544" stroke-linecap="round" stroke-linejoin="round"/>
<path d="M157.797 77.3328H156.886V81.5327H157.797V77.3328Z" stroke="#2F36A5" stroke-width="0.389544" stroke-linecap="round" stroke-linejoin="round"/>
<path d="M139.02 77.3328H138.109V81.5327H139.02V77.3328Z" stroke="#2F36A5" stroke-width="0.389544" stroke-linecap="round" stroke-linejoin="round"/>
<path d="M151.881 31.1787L120.737 89.8132H124.567L155.388 31.1787H151.881Z" fill="white" stroke="#2F36A5" stroke-width="0.389544" stroke-linecap="round" stroke-linejoin="round"/>
<path d="M124.733 89.7893L115.065 113.418C114.786 114.105 114.308 114.693 113.693 115.107C113.078 115.521 112.353 115.742 111.611 115.742H101.69C101.27 115.743 100.856 115.64 100.485 115.444C100.114 115.248 99.7961 114.963 99.5604 114.616C99.3246 114.268 99.1778 113.868 99.1326 113.451C99.0875 113.033 99.1454 112.611 99.3015 112.221L107.401 92.1273C107.677 91.4357 108.154 90.8429 108.771 90.4251C109.387 90.0073 110.115 89.7839 110.86 89.7836L124.733 89.7893Z" fill="white" stroke="#2F36A5" stroke-width="0.389544" stroke-linecap="round" stroke-linejoin="round"/>
<path d="M124.733 89.8132L115.205 113.265C114.93 113.943 114.46 114.523 113.854 114.931C113.248 115.34 112.535 115.558 111.804 115.559H107.872C107.458 115.559 107.051 115.457 106.686 115.264C106.32 115.07 106.008 114.789 105.776 114.447C105.544 114.105 105.4 113.711 105.356 113.299C105.311 112.888 105.368 112.473 105.522 112.089L113.504 92.1257C113.777 91.4438 114.248 90.8593 114.856 90.4476C115.464 90.0358 116.181 89.8157 116.915 89.8157L124.733 89.8132Z" fill="white" stroke="#2F36A5" stroke-width="0.389544" stroke-linecap="round" stroke-linejoin="round"/>
<path d="M120.615 89.8132L120.382 90.3856" stroke="#2F36A5" stroke-width="0.389544" stroke-miterlimit="10" stroke-linecap="round"/>
<path d="M119.917 91.5303L111.087 113.265C110.891 113.748 110.594 114.184 110.216 114.544C109.838 114.903 109.389 115.178 108.896 115.351" stroke="#2F36A5" stroke-width="0.389544" stroke-miterlimit="10" stroke-linecap="round" stroke-dasharray="1.17 1.17"/>
<path d="M108.298 115.505C108.095 115.539 107.889 115.556 107.683 115.556" stroke="#2F36A5" stroke-width="0.389544" stroke-miterlimit="10" stroke-linecap="round"/>
<path d="M111.13 97.9314H105.136" stroke="#2F36A5" stroke-width="0.389544" stroke-miterlimit="10" stroke-linecap="round"/>
<path d="M180.831 60.9594C178.758 61.7598 176.19 65.2845 174.625 69.8138C172.67 75.4747 172.896 80.6892 175.12 81.46C175.493 81.5822 175.895 81.5885 176.272 81.4781L176.983 81.1652C176.618 81.6085 176.159 81.9657 175.64 82.2111C175.12 82.4565 174.553 82.5842 173.979 82.5849H169.058C166.16 82.5849 163.388 80.3532 163.384 77.4552C163.378 73.42 167.666 60.4191 176.23 58.0581C179.132 57.2585 183.198 58.0375 183.518 60.266L180.831 60.9594Z" fill="#515BF6"/>
<path d="M218.823 63.8056H208.36C208.181 63.8055 208.006 63.7589 207.851 63.6704C207.696 63.582 207.567 63.4547 207.476 63.3011C207.385 63.1474 207.336 62.9728 207.333 62.7945C207.331 62.6161 207.374 62.44 207.46 62.2837L214.244 49.968C214.43 49.6304 214.703 49.3489 215.035 49.1529C215.367 48.9569 215.746 48.8536 216.131 48.8538H226.59C226.768 48.8538 226.944 48.9004 227.099 48.9889C227.254 49.0773 227.383 49.2047 227.474 49.3583C227.564 49.5119 227.613 49.6865 227.616 49.8649C227.619 50.0433 227.575 50.2193 227.489 50.3756L220.71 62.6889C220.524 63.0269 220.251 63.3089 219.919 63.5054C219.587 63.7018 219.208 63.8055 218.823 63.8056V63.8056Z" stroke="#2F36A5" stroke-width="0.389544" stroke-miterlimit="10"/>
<path d="M217.477 57.5886L219.979 63.4669" stroke="#2F36A5" stroke-width="0.389544" stroke-miterlimit="10"/>
<path d="M226.921 48.8521L218.114 54.8456" stroke="#2F36A5" stroke-width="0.389544" stroke-miterlimit="10"/>
<path d="M215.012 49.1665L218.413 55.2943C218.604 55.6393 218.655 56.0448 218.555 56.4264C218.455 56.8081 218.212 57.1365 217.876 57.3432L207.727 63.5871" stroke="#2F36A5" stroke-width="0.389544" stroke-miterlimit="10"/>
<path d="M176.273 81.4798C175.896 81.5902 175.494 81.5839 175.121 81.4617C172.89 80.6909 172.667 75.4764 174.626 69.8155C176.191 65.2862 178.759 61.7615 180.832 60.9611L206.083 54.4157C206.562 54.1942 207.99 54.1621 208.518 54.1621H215.061V54.55C215.061 55.0712 214.878 55.5759 214.543 55.9753C214.208 56.3747 213.743 56.6433 213.23 56.734L211.57 57.163C211.224 57.224 210.897 57.3621 210.612 57.5671C210.326 57.7721 210.091 58.0388 209.923 58.3472L207.838 62.6723C207.502 63.2883 207.948 63.7915 208.649 63.7915H216.068C216.068 63.7915 213.856 68.1298 206.257 69.7422L201.434 70.4052L176.273 81.4798Z" fill="white" stroke="#2F36A5" stroke-width="0.389544" stroke-linecap="round" stroke-linejoin="round"/>
<path d="M209.126 60C208.126 61.7928 206.429 64.0888 204.198 64.3506" stroke="#2F36A5" stroke-width="0.389544" stroke-miterlimit="10" stroke-linecap="round"/>
<path d="M199.152 68.7827C199.425 69.3141 199.858 69.7466 200.39 70.0197C200.921 70.2927 201.525 70.3926 202.116 70.3054" stroke="#2F36A5" stroke-width="0.389544" stroke-miterlimit="10" stroke-linecap="round"/>
<path d="M100.731 83.1119H96.6131C92.6157 83.1119 90.0554 78.4508 91.919 74.9146C92.9212 73.0115 94.3196 71.0713 95.8884 69.3476C101.061 63.6654 107.95 61.511 111.28 64.5399C111.939 65.1428 112.501 66.2899 112.501 68.1412L100.731 83.1119Z" fill="#515BF6"/>
<path d="M100.527 82.9332C99.1393 81.7572 100.616 76.9923 103.821 73.2041C106.135 70.4725 108.802 68.5669 110.631 68.1568C110.771 68.1444 110.906 68.1387 111.034 68.1387H118.611C121.714 68.1384 124.761 68.9607 127.443 70.5219L132.853 73.6702C133.511 74.0772 134.054 74.6456 134.431 75.3214C134.808 75.9972 135.006 76.758 135.006 77.5317V84.8413C135.006 85.7882 134.657 86.7019 134.025 87.4077C133.394 88.1134 132.525 88.5616 131.583 88.6665L126.19 89.2677V88.1007C126.19 87.7677 126.273 87.4398 126.431 87.1467C126.589 86.8536 126.818 86.6044 127.096 86.4216L128.395 85.7142C128.451 85.6835 128.495 85.6349 128.521 85.5762C128.546 85.5175 128.551 85.452 128.536 85.39C128.52 85.328 128.484 85.273 128.433 85.2337C128.383 85.1945 128.32 85.1732 128.256 85.1731H126.627C124.382 85.1731 122.638 84.5415 121.033 82.9719L102.49 82.9439L100.527 82.9332Z" fill="white" stroke="#2F36A5" stroke-width="0.389544" stroke-linecap="round" stroke-linejoin="round"/>
<path d="M129.768 77.936L132.684 79.7404C133.341 80.1474 133.884 80.7158 134.261 81.3916C134.638 82.0674 134.835 82.8282 134.835 83.6018V85.8632" stroke="#2F36A5" stroke-width="0.389544" stroke-miterlimit="10" stroke-linecap="round"/>
<path d="M129.768 74.8892L132.684 76.6935C133.342 77.1009 133.885 77.67 134.262 78.3465C134.639 79.0231 134.836 79.7847 134.835 80.5591V83.4793" stroke="#2F36A5" stroke-width="0.389544" stroke-miterlimit="10" stroke-linecap="round"/>
<path d="M134.741 86.1589C134.494 84.7844 133.835 83.7147 132.765 83.0526L129.849 81.2474" stroke="#2F36A5" stroke-width="0.389544" stroke-miterlimit="10" stroke-linecap="round"/>
<path d="M120.477 80.8745C120.476 81.5031 120.643 82.1205 120.959 82.6638C121.275 83.2071 121.729 83.657 122.276 83.9676" stroke="#2F36A5" stroke-width="0.389544" stroke-miterlimit="10" stroke-linecap="round"/>
<path d="M247.557 193.433C247.557 192.323 247.776 191.223 248.201 190.197C248.626 189.171 249.249 188.238 250.034 187.453C250.819 186.668 251.752 186.045 252.778 185.62C253.804 185.195 254.904 184.976 256.014 184.976H256.111C253.341 181.188 251.679 176.399 251.657 171.191C251.603 158.773 260.781 148.74 272.22 148.714C282.414 148.691 290.888 156.702 292.568 167.243C295.153 165.131 298.324 164.052 301.752 164.052C310.449 164.052 317.499 171.897 317.499 181.778C317.499 185.89 316.114 190.337 314.06 193.357L247.557 193.433Z" fill="#35DB87"/>
<path d="M229.801 95.3365C231.422 95.3362 233.017 94.9195 234.432 94.1265C235.847 93.3334 237.034 92.1905 237.881 90.8072L242.807 82.7697H229.474L225.969 88.4898C224.133 91.4882 226.288 95.3365 229.801 95.3365Z" fill="#35DB87"/>
<path d="M265.518 69.8685V81.4562H242.954V69.8685C242.954 67.8899 242.229 65.98 240.915 64.5004C239.602 63.0208 237.791 62.0742 235.827 61.84C236.144 61.8019 236.463 61.783 236.783 61.7832H257.435C259.579 61.7836 261.635 62.6357 263.151 64.1519C264.667 65.6682 265.518 67.7244 265.518 69.8685V69.8685Z" stroke="#0101A6" stroke-width="0.389544" stroke-linejoin="round"/>
<path d="M242.954 69.8825V81.621H228.694V69.8825C228.694 66.217 231.071 63.1132 234.349 62.069C235.309 61.7635 236.339 61.7635 237.298 62.069C240.577 63.1132 242.954 66.217 242.954 69.8825Z" stroke="#0101A6" stroke-width="0.389544" stroke-linejoin="round"/>
<path d="M228.694 69.8825C228.694 66.217 231.071 63.1132 234.349 62.069C235.309 61.7635 236.339 61.7635 237.298 62.069C240.577 63.1132 242.954 66.217 242.954 69.8825V79.9739L228.694 69.8825Z" fill="#0101A6"/>
<path d="M242.954 81.4562V193.021" stroke="#0101A6" stroke-width="0.389544" stroke-miterlimit="10"/>
<path d="M229.043 95.0574C230.778 95.0579 232.484 94.6133 233.998 93.7659C235.512 92.9185 236.783 91.6967 237.69 90.2176L242.96 81.6208H228.694L224.944 87.7388C222.98 90.9414 225.286 95.0574 229.043 95.0574Z" stroke="#0101A6" stroke-width="0.389544" stroke-linejoin="round"/>
<path d="M252.238 55.4709H247.32V57.6714H252.238V55.4709Z" fill="#7EBAD2"/>
<path d="M247.32 75.0624V55.4626" stroke="#0101A6" stroke-width="0.389544" stroke-miterlimit="10"/>
<path d="M247.539 75.1448V62.0566H250.671L247.539 75.1448Z" fill="#35DB87"/>
<path d="M223.009 193.222V144.584C223.014 141.975 224.041 139.473 225.869 137.613C227.697 135.752 230.181 134.682 232.789 134.632C235.397 134.582 237.92 135.555 239.819 137.343C241.718 139.131 242.84 141.592 242.946 144.198C242.952 144.326 242.954 144.454 242.954 144.584V193.222" stroke="#0101A6" stroke-width="0.389544" stroke-miterlimit="10" stroke-linecap="round"/>
<path d="M242.937 193.222V144.584C242.937 144.454 242.937 144.326 242.945 144.198C243.051 141.592 244.174 139.131 246.072 137.343C247.971 135.555 250.495 134.582 253.103 134.632C255.71 134.682 258.195 135.752 260.023 137.613C261.851 139.473 262.878 141.975 262.883 144.584V193.222" stroke="#0101A6" stroke-width="0.389544" stroke-miterlimit="10" stroke-linecap="round"/>
<path d="M262.882 193.222V144.584C262.888 141.975 263.914 139.473 265.742 137.613C267.571 135.752 270.055 134.682 272.662 134.632C275.27 134.582 277.794 135.555 279.693 137.343C281.591 139.131 282.714 141.592 282.82 144.198C282.826 144.326 282.828 144.454 282.828 144.584V193.222" stroke="#0101A6" stroke-width="0.389544" stroke-miterlimit="10" stroke-linecap="round"/>
<path d="M282.812 193.222V144.584C282.812 144.454 282.812 144.326 282.82 144.198C282.926 141.592 284.049 139.131 285.947 137.343C287.846 135.555 290.37 134.582 292.978 134.632C295.585 134.682 298.07 135.752 299.898 137.613C301.726 139.473 302.753 141.975 302.758 144.584V193.222" stroke="#0101A6" stroke-width="0.389544" stroke-miterlimit="10" stroke-linecap="round"/>
<path d="M223.008 181.724C223.01 179.13 224.023 176.638 225.832 174.777C227.641 172.917 230.104 171.836 232.697 171.762C235.291 171.688 237.811 172.628 239.723 174.383C241.635 176.137 242.788 178.567 242.937 181.158" stroke="#0101A6" stroke-width="0.389544" stroke-miterlimit="10" stroke-linecap="round"/>
<path d="M242.954 181.158C243.103 178.567 244.256 176.137 246.168 174.383C248.08 172.628 250.6 171.688 253.194 171.762C255.787 171.836 258.25 172.917 260.059 174.777C261.869 176.638 262.881 179.13 262.883 181.724" stroke="#0101A6" stroke-width="0.389544" stroke-miterlimit="10" stroke-linecap="round"/>
<path d="M262.882 181.724C262.884 179.13 263.897 176.638 265.706 174.777C267.515 172.917 269.978 171.836 272.572 171.762C275.166 171.688 277.686 172.628 279.598 174.383C281.51 176.137 282.663 178.567 282.812 181.158" stroke="#0101A6" stroke-width="0.389544" stroke-miterlimit="10" stroke-linecap="round"/>
<path d="M282.828 181.158C282.977 178.567 284.13 176.137 286.042 174.383C287.954 172.628 290.474 171.688 293.068 171.762C295.662 171.836 298.125 172.917 299.934 174.777C301.743 176.638 302.756 179.13 302.757 181.724" stroke="#0101A6" stroke-width="0.389544" stroke-miterlimit="10" stroke-linecap="round"/>
<path d="M302.741 193.222V144.584C302.741 144.454 302.741 144.326 302.749 144.198C302.855 141.592 303.978 139.131 305.876 137.343C307.775 135.555 310.299 134.582 312.907 134.632C315.514 134.682 317.999 135.752 319.827 137.613C321.655 139.473 322.682 141.975 322.687 144.584V193.222" stroke="#0101A6" stroke-width="0.389544" stroke-miterlimit="10" stroke-linecap="round"/>
<path d="M302.757 181.158C302.906 178.567 304.059 176.137 305.971 174.383C307.883 172.628 310.403 171.688 312.997 171.762C315.591 171.836 318.054 172.917 319.863 174.777C321.672 176.638 322.685 179.13 322.687 181.724" stroke="#0101A6" stroke-width="0.389544" stroke-miterlimit="10" stroke-linecap="round"/>
<path d="M223.008 153.592H322.687" stroke="#0101A6" stroke-width="0.389544" stroke-miterlimit="10" stroke-linecap="round"/>
<path d="M257.248 193.222H331" stroke="#0101A6" stroke-width="0.389544" stroke-miterlimit="10" stroke-linecap="round"/>
<path d="M282.809 193.021C280.88 193.021 279.315 191.588 279.315 189.819C279.315 188.05 280.88 186.615 282.809 186.615C283.171 186.615 283.532 186.666 283.88 186.768C283.888 185.735 284.154 184.721 284.653 183.817C285.152 182.914 285.868 182.148 286.737 181.591C287.606 181.034 288.601 180.702 289.63 180.626C290.66 180.55 291.692 180.732 292.634 181.155C292.747 180.719 292.948 180.309 293.223 179.952C293.499 179.594 293.843 179.296 294.237 179.075C294.63 178.854 295.064 178.714 295.512 178.664C295.961 178.615 296.415 178.656 296.847 178.786C297.279 178.916 297.681 179.131 298.028 179.42C298.374 179.709 298.66 180.064 298.866 180.465C299.072 180.867 299.196 181.306 299.228 181.756C299.261 182.206 299.203 182.658 299.057 183.085C299.21 183.065 299.364 183.056 299.518 183.056C300.481 183.056 301.405 183.437 302.089 184.116C302.772 184.795 303.159 185.716 303.165 186.679C303.614 186.449 304.11 186.323 304.614 186.311C305.119 186.298 305.62 186.4 306.08 186.608C306.54 186.816 306.947 187.126 307.271 187.513C307.595 187.9 307.827 188.356 307.951 188.845C308.074 189.335 308.085 189.846 307.984 190.341C307.882 190.835 307.67 191.301 307.364 191.702C307.057 192.103 306.664 192.43 306.214 192.659C305.763 192.887 305.267 193.011 304.762 193.021H282.809V193.021Z" fill="#7EBAD2"/>
<path d="M289.048 183.693C289.458 183.693 289.789 183.361 289.789 182.951C289.789 182.542 289.458 182.21 289.048 182.21C288.639 182.21 288.307 182.542 288.307 182.951C288.307 183.361 288.639 183.693 289.048 183.693Z" fill="white"/>
<path d="M291.34 179.724C291.908 179.724 292.369 179.263 292.369 178.695C292.369 178.126 291.908 177.665 291.34 177.665C290.771 177.665 290.31 178.126 290.31 178.695C290.31 179.263 290.771 179.724 291.34 179.724Z" fill="#7EBAD2"/>
<path d="M277.807 188.759C278.489 188.759 279.042 188.206 279.042 187.523C279.042 186.841 278.489 186.288 277.807 186.288C277.125 186.288 276.572 186.841 276.572 187.523C276.572 188.206 277.125 188.759 277.807 188.759Z" fill="#7EBAD2"/>
<path d="M283.061 189.872C283.47 189.872 283.803 189.54 283.803 189.13C283.803 188.72 283.47 188.388 283.061 188.388C282.651 188.388 282.319 188.72 282.319 189.13C282.319 189.54 282.651 189.872 283.061 189.872Z" fill="white"/>
<path d="M290.815 186.288C291.383 186.288 291.844 185.827 291.844 185.259C291.844 184.69 291.383 184.229 290.815 184.229C290.246 184.229 289.786 184.69 289.786 185.259C289.786 185.827 290.246 186.288 290.815 186.288Z" fill="white"/>
<path d="M299.764 187.075C300.333 187.075 300.794 186.614 300.794 186.045C300.794 185.477 300.333 185.016 299.764 185.016C299.196 185.016 298.735 185.477 298.735 186.045C298.735 186.614 299.196 187.075 299.764 187.075Z" fill="white"/>
<path d="M296.079 190.808C296.489 190.808 296.821 190.476 296.821 190.066C296.821 189.656 296.489 189.324 296.079 189.324C295.669 189.324 295.337 189.656 295.337 190.066C295.337 190.476 295.669 190.808 296.079 190.808Z" fill="white"/>
<path d="M311.004 192.939C312.055 192.939 312.908 192.087 312.908 191.035C312.908 189.983 312.055 189.131 311.004 189.131C309.952 189.131 309.1 189.983 309.1 191.035C309.1 192.087 309.952 192.939 311.004 192.939Z" fill="#7EBAD2"/>
<path d="M53.9396 85.5292H26.957C24.6897 85.5292 22.8517 87.3672 22.8517 89.6344V113.212C22.8517 115.479 24.6897 117.317 26.957 117.317H53.9396C56.2068 117.317 58.0448 115.479 58.0448 113.212V89.6344C58.0448 87.3672 56.2068 85.5292 53.9396 85.5292Z" fill="#7EBAD2"/>
<path d="M48.8339 85.7598H25.9689C23.7016 85.7598 21.8636 87.5977 21.8636 89.865V112.981C21.8636 115.248 23.7016 117.086 25.9689 117.086H48.8339C51.1011 117.086 52.9391 115.248 52.9391 112.981V89.865C52.9391 87.5977 51.1011 85.7598 48.8339 85.7598Z" fill="white" stroke="#0101A6" stroke-width="0.389544" stroke-linecap="round" stroke-linejoin="round"/>
<path d="M42.6758 97.2018H32.0129C31.5017 97.2018 31.0873 97.6162 31.0873 98.1274V104.692C31.0873 105.203 31.5017 105.617 32.0129 105.617H42.6758C43.187 105.617 43.6015 105.203 43.6015 104.692V98.1274C43.6015 97.6162 43.187 97.2018 42.6758 97.2018Z" stroke="#0101A6" stroke-width="0.389544" stroke-miterlimit="10" stroke-linecap="round"/>
<path d="M43.6023 98.1497L37.9744 101.6C37.7848 101.716 37.567 101.778 37.3448 101.778C37.1226 101.778 36.9047 101.716 36.7152 101.6L31.0873 98.1497" stroke="#0101A6" stroke-width="0.389544" stroke-miterlimit="10" stroke-linecap="round"/>
<path d="M39.1578 102.259L43.4376 105.154" stroke="#0101A6" stroke-width="0.389544" stroke-miterlimit="10" stroke-linecap="round"/>
<path d="M31.2514 105.154L35.5312 102.259" stroke="#0101A6" stroke-width="0.389544" stroke-miterlimit="10" stroke-linecap="round"/>
<path d="M21.8636 89.8651H58.0457" stroke="#0101A6" stroke-width="0.389544" stroke-miterlimit="10" stroke-linecap="round"/>
<path d="M194.681 193.222H11.6664" stroke="#0101A6" stroke-width="0.389544" stroke-miterlimit="10" stroke-linecap="round"/>
<path d="M45.4127 197.961H169.735" stroke="#0101A6" stroke-width="0.389544" stroke-miterlimit="10" stroke-linecap="round"/>
<path d="M173.094 192.939C192.63 192.939 208.466 177.102 208.466 157.567C208.466 138.032 192.63 122.195 173.094 122.195C153.559 122.195 137.723 138.032 137.723 157.567C137.723 177.102 153.559 192.939 173.094 192.939Z" stroke="#0101A6" stroke-width="0.389544" stroke-miterlimit="10"/>
<path d="M173.095 190.508C191.287 190.508 206.035 175.76 206.035 157.567C206.035 139.375 191.287 124.626 173.095 124.626C154.902 124.626 140.154 139.375 140.154 157.567C140.154 175.76 154.902 190.508 173.095 190.508Z" stroke="#0101A6" stroke-width="0.389544" stroke-miterlimit="10"/>
<path d="M36.3717 192.939C55.907 192.939 71.7435 177.102 71.7435 157.567C71.7435 138.032 55.907 122.195 36.3717 122.195C16.8365 122.195 1 138.032 1 157.567C1 177.102 16.8365 192.939 36.3717 192.939Z" stroke="#0101A6" stroke-width="0.389544" stroke-miterlimit="10"/>
<path d="M36.3716 190.508C54.5642 190.508 69.3123 175.76 69.3123 157.567C69.3123 139.375 54.5642 124.626 36.3716 124.626C18.1789 124.626 3.43085 139.375 3.43085 157.567C3.43085 175.76 18.1789 190.508 36.3716 190.508Z" stroke="#0101A6" stroke-width="0.389544" stroke-miterlimit="10"/>
<path d="M169.377 87.2759H167.086V108.788H169.377V87.2759Z" fill="#0101A6"/>
<path d="M186.24 89.893L180.481 107.928C180.409 108.154 180.267 108.351 180.076 108.49C179.884 108.63 179.654 108.705 179.417 108.705H177.215C177.102 108.705 176.991 108.679 176.891 108.628C176.791 108.577 176.704 108.503 176.637 108.412C176.571 108.321 176.527 108.216 176.509 108.105C176.491 107.993 176.499 107.88 176.534 107.772L182.381 89.4582C182.427 89.3144 182.519 89.189 182.641 89.1003C182.764 89.0115 182.911 88.9638 183.062 88.9641H185.558C185.67 88.9641 185.781 88.9906 185.881 89.0413C185.981 89.092 186.067 89.1655 186.134 89.2559C186.2 89.3464 186.244 89.4512 186.263 89.5619C186.281 89.6725 186.273 89.786 186.24 89.893Z" fill="#0101A6"/>
<path d="M176.217 108.705H172.215L179.058 87.2759H183.06L176.217 108.705Z" fill="#0101A6"/>
<path d="M173.513 87.2759H169.376V108.788H173.513V87.2759Z" fill="#35DB87"/>
<path d="M165.607 96.2958H150.587C149.769 96.2958 149.107 96.9583 149.107 97.7756V107.409C149.107 108.226 149.769 108.889 150.587 108.889H165.607C166.424 108.889 167.087 108.226 167.087 107.409V97.7756C167.087 96.9583 166.424 96.2958 165.607 96.2958Z" fill="#7EBAD2"/>
<path d="M142.154 93.0957H186.612L182.602 105.65C182.308 106.572 181.728 107.376 180.947 107.946C180.166 108.517 179.224 108.824 178.256 108.824H149.648L142.154 93.0957Z" stroke="#0101A6" stroke-width="0.389544" stroke-miterlimit="10"/>
<path d="M183.236 93.0957L179.226 105.65C178.932 106.572 178.352 107.376 177.571 107.946C176.79 108.517 175.848 108.824 174.881 108.824" stroke="#0101A6" stroke-width="0.389544" stroke-miterlimit="10"/>
<path d="M179.636 93.0957L175.627 105.65C175.332 106.572 174.753 107.376 173.972 107.946C173.19 108.517 172.248 108.824 171.281 108.824" stroke="#0101A6" stroke-width="0.389544" stroke-miterlimit="10"/>
<path d="M176.039 93.0957L172.029 105.65C171.735 106.572 171.155 107.376 170.374 107.946C169.593 108.517 168.651 108.824 167.683 108.824" stroke="#0101A6" stroke-width="0.389544" stroke-miterlimit="10"/>
<path d="M172.44 93.0957L168.43 105.65C168.136 106.572 167.556 107.376 166.775 107.946C165.994 108.517 165.052 108.824 164.084 108.824" stroke="#0101A6" stroke-width="0.389544" stroke-miterlimit="10"/>
<path d="M168.84 93.0957L164.831 105.65C164.536 106.572 163.957 107.376 163.176 107.946C162.395 108.517 161.452 108.824 160.485 108.824" stroke="#0101A6" stroke-width="0.389544" stroke-miterlimit="10"/>
<path d="M165.242 93.0957L161.232 105.65C160.938 106.572 160.358 107.376 159.577 107.946C158.796 108.517 157.853 108.824 156.886 108.824" stroke="#0101A6" stroke-width="0.389544" stroke-miterlimit="10"/>
<path d="M161.643 93.0957L157.633 105.65C157.339 106.572 156.76 107.376 155.979 107.946C155.197 108.517 154.255 108.824 153.288 108.824" stroke="#0101A6" stroke-width="0.389544" stroke-miterlimit="10"/>
<path d="M158.044 93.0957L154.034 105.65C153.74 106.572 153.16 107.376 152.379 107.946C151.598 108.517 150.656 108.824 149.689 108.824" stroke="#0101A6" stroke-width="0.389544" stroke-miterlimit="10"/>
<path d="M154.445 93.0957L150.436 105.65C150.185 106.437 149.725 107.14 149.106 107.685" stroke="#0101A6" stroke-width="0.389544" stroke-miterlimit="10"/>
<path d="M150.847 93.0957L147.367 103.992" stroke="#0101A6" stroke-width="0.389544" stroke-miterlimit="10"/>
<path d="M147.248 93.0957L145.204 99.4961" stroke="#0101A6" stroke-width="0.389544" stroke-miterlimit="10"/>
<path d="M132.557 157.621C132.557 135.234 150.705 117.086 173.091 117.086" stroke="#0101A6" stroke-width="0.389544" stroke-miterlimit="10" stroke-linecap="round"/>
<path d="M150.871 111.394C142.154 114.409 134.145 121.418 129.423 130.006L123.815 140.2C120.927 145.449 116.683 149.827 111.526 152.876C106.369 155.925 100.488 157.534 94.4975 157.534H81.6877L67.0422 110.147" stroke="#0101A6" stroke-width="0.389544" stroke-miterlimit="10" stroke-linecap="round"/>
<path d="M173.095 157.567L140.431 89.622C139.751 88.2074 138.686 87.0134 137.358 86.1777C136.03 85.342 134.492 84.8985 132.923 84.8983H131.18C130.107 84.8986 129.053 85.1767 128.119 85.7056C127.186 86.2346 126.405 86.9963 125.854 87.9165L124.729 89.7941" stroke="#0101A6" stroke-width="0.389544" stroke-miterlimit="10" stroke-linecap="round"/>
<path d="M59.9392 117.053C59.9389 115.932 59.4933 114.856 58.7001 114.063C57.9069 113.27 56.8313 112.824 55.7096 112.824H31.8407C30.719 112.824 29.6434 113.27 28.8502 114.063C28.057 114.856 27.6114 115.932 27.6111 117.053V117.086H63.7866C65.3395 117.086 66.852 117.581 68.1043 118.499C69.3566 119.418 70.2835 120.711 70.7503 122.192L36.6418 157.567" stroke="#0101A6" stroke-width="0.389544" stroke-miterlimit="10" stroke-linecap="round"/>
<path d="M173.069 159.249C173.99 159.249 174.736 158.503 174.736 157.582C174.736 156.662 173.99 155.915 173.069 155.915C172.149 155.915 171.402 156.662 171.402 157.582C171.402 158.503 172.149 159.249 173.069 159.249Z" stroke="#0101A6" stroke-width="0.389544" stroke-miterlimit="10" stroke-linecap="round"/>
<path d="M96.2199 165.953C96.1573 170.425 92.5075 174.075 88.035 174.138C86.9345 174.154 85.8418 173.951 84.8205 173.541C83.7992 173.13 82.8697 172.521 82.0858 171.749C81.302 170.976 80.6796 170.055 80.2548 169.04C79.83 168.025 79.6112 166.935 79.6112 165.834V165.799C79.6157 165.375 79.5361 164.954 79.3772 164.561C79.2182 164.168 78.983 163.811 78.6851 163.509C78.3872 163.207 78.0326 162.967 77.6415 162.803C77.2505 162.639 76.8309 162.555 76.4069 162.554H36.6911C35.3282 162.554 34.1794 161.483 34.1481 160.119C34.1404 159.787 34.1992 159.456 34.3211 159.147C34.4429 158.838 34.6253 158.556 34.8576 158.318C35.0899 158.08 35.3674 157.891 35.6738 157.762C35.9802 157.633 36.3092 157.566 36.6417 157.566H87.1307C87.3893 157.542 87.6509 157.529 87.9156 157.529C89.0162 157.529 90.1058 157.748 91.1211 158.173C92.1364 158.598 93.0571 159.22 93.8298 160.004C94.6024 160.788 95.2116 161.717 95.6219 162.739C96.0322 163.76 96.2355 164.853 96.2199 165.953Z" fill="white" stroke="#0101A6" stroke-width="0.389544" stroke-miterlimit="10" stroke-linecap="round"/>
<path d="M87.9158 170.516C90.4564 170.516 92.516 168.457 92.516 165.916C92.516 163.375 90.4564 161.316 87.9158 161.316C85.3752 161.316 83.3156 163.375 83.3156 165.916C83.3156 168.457 85.3752 170.516 87.9158 170.516Z" stroke="#0101A6" stroke-width="0.389544" stroke-miterlimit="10" stroke-linecap="round"/>
<path d="M87.9158 165.916L92.4452 177.458C92.5166 177.64 92.6413 177.796 92.8029 177.906C92.9646 178.015 93.1556 178.074 93.3511 178.074H104.64" stroke="#0101A6" stroke-width="0.389544" stroke-miterlimit="10" stroke-linecap="round"/>
<path d="M36.7207 161.719C37.6412 161.719 38.3875 160.973 38.3875 160.053C38.3875 159.132 37.6412 158.386 36.7207 158.386C35.8001 158.386 35.0539 159.132 35.0539 160.053C35.0539 160.973 35.8001 161.719 36.7207 161.719Z" stroke="#0101A6" stroke-width="0.389544" stroke-miterlimit="10" stroke-linecap="round"/>
<path d="M104.877 176.106H93.3089C92.9619 176.106 92.6806 176.388 92.6806 176.735V177.445C92.6806 177.792 92.9619 178.074 93.3089 178.074H104.877C105.224 178.074 105.505 177.792 105.505 177.445V176.735C105.505 176.388 105.224 176.106 104.877 176.106Z" stroke="#0101A6" stroke-width="0.389544" stroke-miterlimit="10"/>
<path d="M75.5398 110.147H61.6586C61.0281 110.147 60.4233 109.896 59.9775 109.45C59.5316 109.004 59.2811 108.4 59.2811 107.769C59.2811 107.139 59.5316 106.534 59.9775 106.088C60.4233 105.642 61.0281 105.392 61.6586 105.392H81.82C81.9024 105.391 81.9831 105.416 82.0515 105.462C82.1199 105.508 82.1729 105.573 82.2037 105.65C82.2345 105.726 82.2416 105.81 82.2241 105.891C82.2067 105.971 82.1654 106.045 82.1058 106.101L79.6047 108.508C78.5128 109.559 77.0558 110.147 75.5398 110.147Z" fill="#0101A6"/>
<path d="M18.7711 19.4542V19.2071C20.4181 14.8935 24.8396 11.8037 30.0376 11.8037C31.6002 11.8008 33.15 12.0864 34.609 12.6462C35.2324 12.8875 35.9076 12.4477 35.9068 11.8226V11.807C35.906 10.4752 36.161 9.15563 36.6579 7.92C38.3518 3.68958 42.7288 0.677979 47.8635 0.677979C52.9981 0.677979 57.3735 3.68958 59.0633 7.91835C59.102 8.01388 59.1399 8.11105 59.1753 8.20905C59.3203 8.10913 59.4671 8.01223 59.6159 7.91835C61.6266 6.6722 63.9452 6.01197 66.3107 6.01197C68.6762 6.01197 70.9948 6.6722 73.0055 7.91835C76.1801 9.9195 78.2661 13.3025 78.2661 17.1418V17.1582C78.2661 17.6812 78.9249 17.9752 79.354 17.64C81.7422 15.7879 84.9424 14.6556 88.4621 14.6556C93.0211 14.6556 97.0456 16.5562 99.4577 19.4583" stroke="#35DB87" stroke-width="0.467452" stroke-miterlimit="10" stroke-linecap="round"/>
<path d="M63.0238 21.5485C59.6919 19.3612 55.5677 19.4518 52.6664 21.4752C52.5997 21.5213 52.5339 21.5682 52.4696 21.6168C52.4186 21.49 52.3637 21.3645 52.3049 21.2405C51.5311 19.5752 50.308 18.159 48.7731 17.1512C47.2381 16.1434 45.4524 15.584 43.6168 15.536C40.7032 15.4833 37.9082 16.7902 36.2735 19.2813L36.2669 19.2912" stroke="#35DB87" stroke-width="0.467452" stroke-miterlimit="10" stroke-linecap="round"/>
</svg>
