<svg width="331" height="211" viewBox="0 0 331 211" fill="none" xmlns="http://www.w3.org/2000/svg">
<path d="M101.74 176.39H90.3021L88.5966 39.7644H100.035L101.74 176.39Z" fill="white" stroke="#111B7A" stroke-width="0.389544" stroke-miterlimit="10"/>
<path d="M100.035 39.7644V43.5421L88.5966 40.9201V39.7644H100.035Z" fill="#111B7A"/>
<path d="M122.368 17.9575L119.41 25.403L116.684 32.2652L114.612 37.4823C114.345 38.1556 113.881 38.733 113.282 39.1398C112.682 39.5467 111.974 39.7643 111.25 39.7644H76.8307C76.1063 39.7644 75.3984 39.5468 74.799 39.14C74.1995 38.7331 73.736 38.1556 73.4685 37.4823L71.3962 32.2652L68.6668 25.403L65.7124 17.9575H122.368Z" fill="white" stroke="#111B7A" stroke-width="0.389544" stroke-miterlimit="10"/>
<path d="M60.2723 17.9565H127.059" stroke="#111B7A" stroke-width="0.389544" stroke-miterlimit="10" stroke-linecap="round"/>
<path d="M65.7124 17.9567H122.368L94.0408 12.0588L65.7124 17.9567Z" stroke="#111B7A" stroke-width="0.389544" stroke-miterlimit="10" stroke-linecap="round"/>
<path d="M94.0409 12.0588V0.466309" stroke="#111B7A" stroke-width="0.389544" stroke-miterlimit="10" stroke-linecap="round"/>
<path d="M100.035 45.7554V48.6107L88.5966 46.2749V45.7554H100.035Z" fill="#111B7A"/>
<path d="M105.684 43.6318H83.0039V45.7754H105.684V43.6318Z" fill="white" stroke="#111B7A" stroke-width="0.389544" stroke-miterlimit="10"/>
<path d="M118.78 26.427L116.054 33.2892H73.1288L70.4035 26.427H118.78Z" fill="#BDDCE8"/>
<path d="M119.41 25.4031L116.685 32.2653H71.3964L68.6703 25.4031H119.41Z" stroke="#111B7A" stroke-width="0.389544" stroke-miterlimit="10" stroke-linecap="round"/>
<path d="M77.2496 32.2653L74.5244 25.4031" stroke="#111B7A" stroke-width="0.389544" stroke-miterlimit="10" stroke-linecap="round"/>
<path d="M83.1041 32.2653L80.378 25.4031" stroke="#111B7A" stroke-width="0.389544" stroke-miterlimit="10" stroke-linecap="round"/>
<path d="M88.9573 32.2653L86.2321 25.4031" stroke="#111B7A" stroke-width="0.389544" stroke-miterlimit="10" stroke-linecap="round"/>
<path d="M110.644 32.2653L113.37 25.4031" stroke="#111B7A" stroke-width="0.389544" stroke-miterlimit="10" stroke-linecap="round"/>
<path d="M104.791 32.2653L107.516 25.4031" stroke="#111B7A" stroke-width="0.389544" stroke-miterlimit="10" stroke-linecap="round"/>
<path d="M98.9366 32.2653L101.663 25.4031" stroke="#111B7A" stroke-width="0.389544" stroke-miterlimit="10" stroke-linecap="round"/>
<path d="M94.0409 32.2653V25.4031" stroke="#111B7A" stroke-width="0.389544" stroke-miterlimit="10" stroke-linecap="round"/>
<path d="M317.997 125.867H137.009C149.271 92.2228 185.15 67.8652 227.503 67.8652C269.856 67.8652 305.736 92.2228 317.997 125.867Z" stroke="#111B7A" stroke-width="0.389544" stroke-miterlimit="10" stroke-linecap="round"/>
<path d="M312.487 126.115H145.045C155.528 97.3466 192.549 75.7168 228.766 75.7168C264.983 75.7168 302.001 97.3466 312.487 126.115Z" fill="#BDDCE8"/>
<path d="M313.782 125.867H141.224C152.028 96.2204 190.183 73.9292 227.505 73.9292C264.827 73.9292 302.978 96.2204 313.782 125.867Z" stroke="#111B7A" stroke-width="0.389544" stroke-miterlimit="10" stroke-linecap="round"/>
<path d="M238.43 65.4094V68.279" stroke="#111B7A" stroke-width="0.389544" stroke-miterlimit="10" stroke-linecap="round"/>
<path d="M216.472 68.279V65.4094" stroke="#111B7A" stroke-width="0.389544" stroke-miterlimit="10" stroke-linecap="round"/>
<path d="M242.071 62.1611H214.288V66.0312H242.071V62.1611Z" fill="#A7FFAF"/>
<path d="M241.395 61.4839H213.611V65.3539H241.395V61.4839Z" stroke="#111B7A" stroke-width="0.389544" stroke-miterlimit="10" stroke-linecap="round"/>
<path d="M228.764 75.3862V125.412" stroke="white" stroke-width="0.467452" stroke-miterlimit="10" stroke-linecap="round"/>
<path d="M243.922 76.5117V125.411" stroke="white" stroke-width="0.467452" stroke-miterlimit="10" stroke-linecap="round"/>
<path d="M259.081 80.0176V125.412" stroke="white" stroke-width="0.467452" stroke-miterlimit="10" stroke-linecap="round"/>
<path d="M274.239 86.2468V125.411" stroke="white" stroke-width="0.467452" stroke-miterlimit="10" stroke-linecap="round"/>
<path d="M292.667 98.0432V125.411" stroke="white" stroke-width="0.467452" stroke-miterlimit="10" stroke-linecap="round"/>
<path d="M213.61 76.635V125.366" stroke="white" stroke-width="0.467452" stroke-miterlimit="10" stroke-linecap="round"/>
<path d="M198.451 80.1418V125.366" stroke="white" stroke-width="0.467452" stroke-miterlimit="10" stroke-linecap="round"/>
<path d="M183.293 86.3711V125.366" stroke="white" stroke-width="0.467452" stroke-miterlimit="10" stroke-linecap="round"/>
<path d="M168.134 95.6908V125.366" stroke="white" stroke-width="0.467452" stroke-miterlimit="10" stroke-linecap="round"/>
<path d="M271.008 34.1168C272.05 34.1168 272.895 33.2717 272.895 32.2292C272.895 31.1867 272.05 30.3416 271.008 30.3416C269.965 30.3416 269.12 31.1867 269.12 32.2292C269.12 33.2717 269.965 34.1168 271.008 34.1168Z" fill="#A7FFAF"/>
<path d="M280.247 34.1168C281.29 34.1168 282.135 33.2717 282.135 32.2292C282.135 31.1867 281.29 30.3416 280.247 30.3416C279.205 30.3416 278.36 31.1867 278.36 32.2292C278.36 33.2717 279.205 34.1168 280.247 34.1168Z" fill="#A7FFAF"/>
<path d="M289.487 34.1168C290.53 34.1168 291.375 33.2717 291.375 32.2292C291.375 31.1867 290.53 30.3416 289.487 30.3416C288.445 30.3416 287.6 31.1867 287.6 32.2292C287.6 33.2717 288.445 34.1168 289.487 34.1168Z" fill="#A7FFAF"/>
<path d="M298.728 34.1168C299.77 34.1168 300.615 33.2717 300.615 32.2292C300.615 31.1867 299.77 30.3416 298.728 30.3416C297.685 30.3416 296.84 31.1867 296.84 32.2292C296.84 33.2717 297.685 34.1168 298.728 34.1168Z" fill="#A7FFAF"/>
<path d="M266.425 29.2991H301.96" stroke="#111B7A" stroke-width="0.389544" stroke-miterlimit="10" stroke-linecap="round"/>
<path d="M266.424 35.0474H301.96" stroke="#111B7A" stroke-width="0.389544" stroke-miterlimit="10" stroke-linecap="round"/>
<path d="M284.192 44.8203V125.876" stroke="#111B7A" stroke-width="0.389544" stroke-miterlimit="10" stroke-linecap="round"/>
<path d="M294.108 35.0618L284.192 44.8204L274.276 35.0618" stroke="#111B7A" stroke-width="0.389544" stroke-miterlimit="10" stroke-linecap="round"/>
<path d="M270.141 34.0377C271.184 34.0377 272.029 33.1925 272.029 32.1501C272.029 31.1076 271.184 30.2625 270.141 30.2625C269.099 30.2625 268.254 31.1076 268.254 32.1501C268.254 33.1925 269.099 34.0377 270.141 34.0377Z" stroke="#111B7A" stroke-width="0.389544" stroke-miterlimit="10" stroke-linecap="round"/>
<path d="M279.381 34.0377C280.424 34.0377 281.269 33.1925 281.269 32.1501C281.269 31.1076 280.424 30.2625 279.381 30.2625C278.339 30.2625 277.494 31.1076 277.494 32.1501C277.494 33.1925 278.339 34.0377 279.381 34.0377Z" stroke="#111B7A" stroke-width="0.389544" stroke-miterlimit="10" stroke-linecap="round"/>
<path d="M288.622 34.0377C289.664 34.0377 290.509 33.1925 290.509 32.1501C290.509 31.1076 289.664 30.2625 288.622 30.2625C287.579 30.2625 286.734 31.1076 286.734 32.1501C286.734 33.1925 287.579 34.0377 288.622 34.0377Z" stroke="#111B7A" stroke-width="0.389544" stroke-miterlimit="10" stroke-linecap="round"/>
<path d="M297.861 34.0377C298.904 34.0377 299.749 33.1925 299.749 32.1501C299.749 31.1076 298.904 30.2625 297.861 30.2625C296.819 30.2625 295.974 31.1076 295.974 32.1501C295.974 33.1925 296.819 34.0377 297.861 34.0377Z" stroke="#111B7A" stroke-width="0.389544" stroke-miterlimit="10" stroke-linecap="round"/>
<path d="M155.844 45.1685C155.081 45.1685 154.343 45.4438 153.765 45.944L152.59 46.9612L136.966 45.6494C136.906 45.6445 136.85 45.6169 136.809 45.5722C136.767 45.5282 136.745 45.4698 136.745 45.4093C136.745 45.3777 136.751 45.3463 136.763 45.317C136.775 45.2878 136.793 45.2612 136.815 45.2388C136.838 45.2164 136.864 45.1986 136.894 45.1866C136.923 45.1745 136.954 45.1683 136.986 45.1685H155.844Z" fill="white" stroke="#111B7A" stroke-width="0.389544" stroke-miterlimit="10"/>
<path d="M182.124 48.5661L186.77 42.3896H186.228C185.992 42.3896 185.762 42.4594 185.565 42.5902L183.082 44.2462C182.184 44.8473 181.128 45.1686 180.048 45.1694H155.844C155.081 45.1696 154.343 45.4446 153.766 45.9441L152.59 46.963C151.444 47.9551 152.146 49.8385 153.662 49.8385H179.577C180.071 49.8382 180.558 49.7232 181 49.5024C181.442 49.2815 181.827 48.961 182.124 48.5661Z" fill="white" stroke="#111B7A" stroke-width="0.389544" stroke-miterlimit="10"/>
<path d="M169.384 46.6641C168.283 45.6997 166.87 45.1682 165.407 45.1685H197.158C197.231 45.1685 197.302 45.1977 197.354 45.2498C197.406 45.3019 197.435 45.3726 197.435 45.4463C197.436 45.5155 197.41 45.5823 197.363 45.6334C197.317 45.6845 197.253 45.7163 197.184 45.7224L170.844 47.9449L169.384 46.6641Z" fill="white" stroke="#111B7A" stroke-width="0.389544" stroke-miterlimit="10"/>
<path d="M147.162 47.4305C147.162 48.504 146.437 49.0428 145.282 49.0428C144.778 49.0428 144.372 48.9345 144.069 48.7407C144.186 48.8028 144.317 48.8356 144.45 48.8363C145.03 48.8363 145.5 48.206 145.5 47.4297C145.5 46.6533 145.03 46.0238 144.45 46.0238C144.317 46.0241 144.186 46.057 144.069 46.1195V46.1145C144.37 45.9231 144.775 45.8157 145.282 45.8157C146.479 45.8157 147.162 46.4099 147.162 47.4305Z" fill="white" stroke="#111B7A" stroke-width="0.389544" stroke-miterlimit="10"/>
<path d="M144.45 48.8356C145.03 48.8356 145.5 48.2062 145.5 47.4298C145.5 46.6533 145.03 46.0239 144.45 46.0239C143.87 46.0239 143.4 46.6533 143.4 47.4298C143.4 48.2062 143.87 48.8356 144.45 48.8356Z" fill="white" stroke="#111B7A" stroke-width="0.389544" stroke-miterlimit="10"/>
<path d="M173.252 47.4305C173.252 48.504 172.526 49.0428 171.37 49.0428C170.867 49.0428 170.461 48.9345 170.158 48.7407C170.275 48.8027 170.406 48.8355 170.538 48.8363C171.119 48.8363 171.589 48.206 171.589 47.4297C171.589 46.6533 171.119 46.0238 170.538 46.0238C170.406 46.0242 170.275 46.0571 170.158 46.1195V46.1145C170.459 45.9231 170.864 45.8157 171.37 45.8157C172.568 45.8157 173.252 46.4099 173.252 47.4305Z" fill="white" stroke="#111B7A" stroke-width="0.389544" stroke-miterlimit="10"/>
<path d="M170.539 48.8356C171.119 48.8356 171.589 48.2062 171.589 47.4298C171.589 46.6533 171.119 46.0239 170.539 46.0239C169.959 46.0239 169.489 46.6533 169.489 47.4298C169.489 48.2062 169.959 48.8356 170.539 48.8356Z" fill="white" stroke="#111B7A" stroke-width="0.389544" stroke-miterlimit="10"/>
<path d="M156.361 46.8455H152.712L153.635 46.0649H155.938C156.031 46.0648 156.122 46.0937 156.198 46.1475C156.275 46.2013 156.332 46.2774 156.363 46.3654L156.475 46.6785C156.482 46.6971 156.484 46.7169 156.481 46.7365C156.479 46.7561 156.472 46.7748 156.46 46.7911C156.449 46.8073 156.434 46.8208 156.417 46.8302C156.4 46.8397 156.381 46.8449 156.361 46.8455Z" fill="#111B7A"/>
<path d="M159.605 46.0649H159.601C159.462 46.0649 159.349 46.1777 159.349 46.3167V46.5929C159.349 46.7319 159.462 46.8447 159.601 46.8447H159.605C159.744 46.8447 159.856 46.7319 159.856 46.5929V46.3167C159.856 46.1777 159.744 46.0649 159.605 46.0649Z" fill="#111B7A"/>
<path d="M161.022 46.0649H161.019C160.88 46.0649 160.767 46.1777 160.767 46.3167V46.5929C160.767 46.7319 160.88 46.8447 161.019 46.8447H161.022C161.161 46.8447 161.274 46.7319 161.274 46.5929V46.3167C161.274 46.1777 161.161 46.0649 161.022 46.0649Z" fill="#111B7A"/>
<path d="M162.44 46.0649H162.436C162.297 46.0649 162.185 46.1777 162.185 46.3167V46.5929C162.185 46.7319 162.297 46.8447 162.436 46.8447H162.44C162.579 46.8447 162.692 46.7319 162.692 46.5929V46.3167C162.692 46.1777 162.579 46.0649 162.44 46.0649Z" fill="#111B7A"/>
<path d="M163.857 46.0649H163.854C163.715 46.0649 163.602 46.1777 163.602 46.3167V46.5929C163.602 46.7319 163.715 46.8447 163.854 46.8447H163.857C163.997 46.8447 164.109 46.7319 164.109 46.5929V46.3167C164.109 46.1777 163.997 46.0649 163.857 46.0649Z" fill="#111B7A"/>
<path d="M165.275 46.0649H165.272C165.133 46.0649 165.02 46.1777 165.02 46.3167V46.5929C165.02 46.7319 165.133 46.8447 165.272 46.8447H165.275C165.414 46.8447 165.527 46.7319 165.527 46.5929V46.3167C165.527 46.1777 165.414 46.0649 165.275 46.0649Z" fill="#111B7A"/>
<path d="M166.693 46.0649H166.689C166.55 46.0649 166.438 46.1777 166.438 46.3167V46.5929C166.438 46.7319 166.55 46.8447 166.689 46.8447H166.693C166.832 46.8447 166.945 46.7319 166.945 46.5929V46.3167C166.945 46.1777 166.832 46.0649 166.693 46.0649Z" fill="#111B7A"/>
<path d="M316.558 115.3C317.394 115.302 318.209 115.561 318.893 116.041C319.578 116.522 320.098 117.2 320.384 117.986" stroke="#111B7A" stroke-width="0.389544" stroke-miterlimit="10" stroke-linecap="round"/>
<path d="M330 126.133V125.926C328.613 122.289 324.88 119.685 320.502 119.685C319.184 119.682 317.878 119.923 316.648 120.395C316.122 120.598 315.553 120.227 315.557 119.697V119.685C315.558 118.563 315.343 117.452 314.924 116.412C313.498 112.847 309.805 110.308 305.478 110.308C301.151 110.308 297.461 112.847 296.033 116.412C296.001 116.495 295.969 116.574 295.938 116.657C295.817 116.574 295.692 116.49 295.567 116.412C293.872 115.361 291.918 114.805 289.924 114.805C287.929 114.805 285.975 115.361 284.28 116.412C281.603 118.099 279.845 120.951 279.845 124.185V124.199C279.845 124.64 279.292 124.888 278.927 124.605C276.913 123.044 274.216 122.087 271.25 122.087C267.407 122.087 264.014 123.689 261.981 126.135L330 126.133Z" fill="white" stroke="#111B7A" stroke-width="0.389544" stroke-miterlimit="10" stroke-linecap="round"/>
<path d="M311.097 124.061C309.25 122.848 306.962 122.899 305.353 124.021C305.317 124.046 305.28 124.072 305.244 124.099C305.216 124.029 305.186 123.959 305.154 123.89C304.725 122.966 304.046 122.181 303.195 121.622C302.343 121.064 301.353 120.754 300.335 120.727C298.719 120.698 297.169 121.422 296.262 122.804V122.81" stroke="#111B7A" stroke-width="0.389544" stroke-miterlimit="10" stroke-linecap="round"/>
<path d="M122.369 189.648H292.154" stroke="#111B7A" stroke-width="0.389544" stroke-miterlimit="10" stroke-linecap="round"/>
<path d="M87.1572 176.374C87.1572 183.705 92.5792 189.648 99.2668 189.648H96.0631C89.1305 189.648 84.0392 183.705 84.0392 176.374C84.0392 169.044 89.1305 163.101 96.0631 163.101H99.2668C92.5792 163.101 87.1572 169.041 87.1572 176.374Z" fill="white" stroke="#111B7A" stroke-width="0.389544" stroke-miterlimit="10"/>
<path d="M99.4462 163.103H99.2666H99.4462Z" fill="white" stroke="#111B7A" stroke-width="0.389544" stroke-miterlimit="10"/>
<path d="M99.4462 189.648H99.2666H99.4462Z" fill="white" stroke="#111B7A" stroke-width="0.389544" stroke-miterlimit="10"/>
<path d="M111.377 176.374C111.377 183.639 106.052 189.541 99.4467 189.646H99.2671C92.5795 189.646 87.1575 183.703 87.1575 176.373C87.1575 169.042 92.5795 163.1 99.2671 163.1H99.4467C106.052 163.208 111.377 169.109 111.377 176.374Z" fill="#3C46E3" stroke="#111B7A" stroke-width="0.389544" stroke-miterlimit="10"/>
<path d="M99.267 185.928C104.028 185.928 107.888 181.697 107.888 176.478C107.888 171.259 104.028 167.029 99.267 167.029C94.5055 167.029 90.6456 171.259 90.6456 176.478C90.6456 181.697 94.5055 185.928 99.267 185.928Z" stroke="#111B7A" stroke-width="0.389544" stroke-miterlimit="10"/>
<path d="M312.492 145.38V176.311H75.455V149.898C75.4552 148.128 75.9642 146.395 76.9215 144.906C77.8788 143.417 79.2439 142.235 80.8543 141.5L114.981 128.16L136.588 94.2589C137.521 92.7927 138.81 91.5857 140.334 90.7495C141.858 89.9133 143.568 89.4749 145.306 89.4749H224.853C243.262 89.4749 250.69 95.209 259.385 105.198L265.99 112.785C270.464 117.923 275.629 122.414 281.339 126.13H301.895C304.693 126.13 307.376 127.241 309.354 129.219C311.333 131.198 312.444 133.881 312.445 136.678V144.541C312.476 144.82 312.492 145.1 312.492 145.38Z" fill="white" stroke="#111B7A" stroke-width="0.389544" stroke-miterlimit="10" stroke-linecap="round"/>
<path d="M312.257 140.916V174.719H76.4781V150.182C76.4781 146.784 79.9596 143.699 83.175 142.292L116.657 129.756H301.093C304.053 129.756 306.892 130.931 308.986 133.024C311.079 135.117 312.256 137.956 312.257 140.916Z" fill="#515BF6"/>
<path d="M318.209 170.417H72.0482C70.3948 170.417 69.0544 171.757 69.0544 173.411V173.459C69.0544 175.112 70.3948 176.452 72.0482 176.452H318.209C319.862 176.452 321.203 175.112 321.203 173.459V173.411C321.203 171.757 319.862 170.417 318.209 170.417Z" fill="white" stroke="#111B7A" stroke-width="0.389544" stroke-miterlimit="10"/>
<path d="M198.593 89.6367H158.58L162.436 83.8002C162.895 83.1001 163.52 82.5247 164.255 82.1257C164.991 81.7266 165.814 81.5164 166.65 81.5139H190.523H190.655C191.469 81.538 192.265 81.7583 192.976 82.156C193.686 82.5538 194.291 83.1172 194.737 83.7985L198.593 89.6367Z" fill="white"/>
<path d="M198.592 89.6369H160.656L164.312 84.4332C164.766 83.7987 165.366 83.2824 166.061 82.9278C166.756 82.5732 167.526 82.3906 168.306 82.3954H190.94H191.065C191.824 82.4099 192.57 82.6016 193.242 82.9551C193.913 83.3086 194.494 83.8142 194.935 84.4315L198.592 89.6369Z" fill="#515BF6"/>
<path d="M198.829 89.4799H158.58L162.542 83.6048C163.019 82.8954 163.663 82.3141 164.417 81.9119C165.171 81.5097 166.012 81.299 166.867 81.2983H190.535H190.671C191.503 81.3195 192.318 81.5394 193.048 81.9398C193.778 82.3401 194.402 82.9093 194.867 83.5997L198.829 89.4799Z" stroke="#111B7A" stroke-width="0.389544" stroke-miterlimit="10" stroke-linecap="round"/>
<path d="M198.829 89.48H182.52L186.481 83.6048C186.93 82.8995 187.55 82.3188 188.283 81.9165C189.016 81.5141 189.838 81.3032 190.675 81.3032C191.511 81.3032 192.333 81.5141 193.066 81.9165C193.799 82.3188 194.419 82.8995 194.868 83.6048L198.829 89.48Z" stroke="#111B7A" stroke-width="0.389544" stroke-miterlimit="10" stroke-linecap="round"/>
<path d="M223.441 138.367H220.383V141.425H223.441V138.367Z" fill="#111B7A"/>
<path d="M229.557 138.367H226.499V141.425H229.557V138.367Z" fill="#111B7A"/>
<path d="M235.673 138.367H232.616V141.425H235.673V138.367Z" fill="#111B7A"/>
<path d="M241.789 138.367H238.732V141.425H241.789V138.367Z" fill="#111B7A"/>
<path d="M226.498 141.426H223.441V144.483H226.498V141.426Z" fill="#111B7A"/>
<path d="M232.615 141.426H229.557V144.483H232.615V141.426Z" fill="#111B7A"/>
<path d="M238.731 141.426H235.673V144.483H238.731V141.426Z" fill="#111B7A"/>
<path d="M162.585 138.367H159.528V141.425H162.585V138.367Z" fill="#111B7A"/>
<path d="M168.701 138.367H165.644V141.425H168.701V138.367Z" fill="#111B7A"/>
<path d="M174.817 138.367H171.76V141.425H174.817V138.367Z" fill="#111B7A"/>
<path d="M180.934 138.367H177.876V141.425H180.934V138.367Z" fill="#111B7A"/>
<path d="M165.644 141.426H162.586V144.483H165.644V141.426Z" fill="#111B7A"/>
<path d="M171.76 141.426H168.702V144.483H171.76V141.426Z" fill="#111B7A"/>
<path d="M177.876 141.426H174.818V144.483H177.876V141.426Z" fill="#111B7A"/>
<path d="M257.822 111.105V128.256H204.493V95.6194C204.493 94.6177 204.891 93.6571 205.599 92.9488C206.307 92.2404 207.268 91.8425 208.27 91.8425H223.356C238.732 91.8425 246.531 96.4319 255.013 104.55C255.9 105.397 256.606 106.414 257.089 107.54C257.571 108.667 257.821 109.879 257.822 111.105Z" stroke="#111B7A" stroke-width="0.389544" stroke-miterlimit="10" stroke-linecap="round"/>
<path d="M271.473 128.256H260.394V112.041C260.394 111.919 260.431 111.8 260.501 111.699C260.57 111.599 260.669 111.522 260.783 111.479C260.898 111.436 261.023 111.429 261.141 111.459C261.26 111.489 261.366 111.555 261.446 111.647L264.498 115.153C267.147 118.195 270.041 121.013 273.152 123.581C275.058 125.156 273.948 128.256 271.473 128.256Z" stroke="#111B7A" stroke-width="0.389544" stroke-miterlimit="10" stroke-linecap="round"/>
<path d="M257.822 123.97V128.243H253.019V123.97C253.019 122.84 252.797 121.721 252.364 120.677C251.932 119.633 251.298 118.684 250.498 117.885C249.699 117.086 248.75 116.452 247.706 116.02C246.662 115.587 245.543 115.365 244.413 115.365H249.217C250.347 115.365 251.466 115.588 252.51 116.02C253.554 116.453 254.503 117.086 255.302 117.886C256.101 118.685 256.735 119.633 257.167 120.677C257.599 121.721 257.822 122.84 257.822 123.97Z" fill="#3C46E3" stroke="#111B7A" stroke-width="0.389544" stroke-miterlimit="10"/>
<path d="M253.019 123.971V128.244H204.507V115.366H244.413C245.543 115.366 246.662 115.589 247.706 116.021C248.75 116.454 249.699 117.087 250.498 117.886C251.297 118.685 251.931 119.634 252.364 120.678C252.796 121.722 253.019 122.841 253.019 123.971Z" fill="white" stroke="#111B7A" stroke-width="0.389544" stroke-miterlimit="10"/>
<path d="M193.98 148.24V148.278C191.887 148.278 189.817 147.846 187.898 147.009C185.979 146.172 184.254 144.949 182.829 143.415L168.538 128.019H173.876L181.732 140.722C183.044 142.845 184.836 144.63 186.963 145.936C189.09 147.241 191.493 148.03 193.98 148.24Z" fill="#111B7A"/>
<path d="M156.611 109.677H182.752C184.97 109.677 187.141 110.307 189.014 111.494C190.887 112.681 192.385 114.376 193.332 116.381L196.754 123.63L203.569 115.339C204.307 114.441 205.326 113.818 206.462 113.572C207.597 113.325 208.783 113.469 209.827 113.98L216.354 117.177C216.993 117.49 217.561 117.932 218.022 118.475C218.482 119.018 218.825 119.65 219.029 120.332C219.234 121.014 219.294 121.731 219.208 122.438C219.122 123.145 218.891 123.826 218.529 124.439L209.074 140.445C207.661 142.836 205.65 144.818 203.238 146.194C200.826 147.571 198.096 148.295 195.319 148.295C192.597 148.295 189.92 147.6 187.542 146.274C185.164 144.949 183.164 143.038 181.733 140.722L173.877 128.019H138.122L146.874 114.888C147.942 113.285 149.39 111.97 151.089 111.061C152.787 110.152 154.684 109.677 156.611 109.677Z" fill="#98C8DB"/>
<g opacity="0.5">
<path opacity="0.5" d="M186.541 110.307V145.667C186.408 145.581 186.277 145.492 186.147 145.4V110.18C186.279 110.22 186.411 110.263 186.541 110.307Z" fill="white"/>
<path opacity="0.5" d="M188.981 111.474V146.985C188.85 146.928 188.718 146.869 188.588 146.808V111.236C188.721 111.313 188.856 111.393 188.981 111.474Z" fill="white"/>
<path opacity="0.5" d="M191.423 113.521V147.813C191.291 147.78 191.161 147.745 191.03 147.709V113.108C191.164 113.242 191.296 113.38 191.423 113.521Z" fill="white"/>
<path opacity="0.5" d="M193.864 117.508V148.226C193.733 148.216 193.601 148.202 193.471 148.186V116.676L193.629 117.012L193.864 117.508Z" fill="white"/>
<path opacity="0.5" d="M196.305 122.68V148.264C196.175 148.273 196.043 148.279 195.912 148.284V121.846L195.935 121.896L196.305 122.68Z" fill="white"/>
<path opacity="0.5" d="M198.747 121.206V147.923C198.616 147.952 198.485 147.98 198.353 148.007V121.685L198.503 121.502L198.747 121.206Z" fill="white"/>
<path opacity="0.5" d="M201.188 118.235V147.177C201.058 147.228 200.926 147.279 200.795 147.327V118.714L201.188 118.235Z" fill="white"/>
<path opacity="0.5" d="M203.628 115.268V145.96C203.499 146.044 203.367 146.117 203.234 146.193V115.745L203.57 115.34L203.628 115.268Z" fill="white"/>
<path opacity="0.5" d="M206.07 113.673V144.135C205.941 144.253 205.81 144.368 205.677 144.481V113.81C205.81 113.759 205.938 113.713 206.07 113.673Z" fill="white"/>
<path opacity="0.5" d="M208.512 113.544V141.344H208.496C208.372 141.525 208.245 141.702 208.116 141.876V113.482C208.249 113.499 208.381 113.519 208.512 113.544Z" fill="white"/>
<path opacity="0.5" d="M210.953 114.532V137.263L210.559 137.928V114.339L210.953 114.532Z" fill="white"/>
<path opacity="0.5" d="M213.394 115.727V133.13L213.099 133.629L213.001 133.795V115.535L213.394 115.727Z" fill="white"/>
<path opacity="0.5" d="M215.836 116.924V128.996L215.704 129.219L215.442 129.663V116.73L215.836 116.924Z" fill="white"/>
<path opacity="0.5" d="M218.277 118.801V124.863L217.883 125.53V118.317C218.025 118.469 218.156 118.631 218.277 118.801Z" fill="white"/>
<path opacity="0.5" d="M152.441 110.445V128.019H152.048V110.604C152.178 110.548 152.309 110.496 152.441 110.445Z" fill="white"/>
<path opacity="0.5" d="M154.883 109.805V128.018H154.489V109.87C154.62 109.847 154.751 109.825 154.883 109.805Z" fill="white"/>
<path opacity="0.5" d="M157.324 109.677H156.931V128.019H157.324V109.677Z" fill="white"/>
<path opacity="0.5" d="M159.765 109.677H159.371V128.019H159.765V109.677Z" fill="white"/>
<path opacity="0.5" d="M162.207 109.677H161.813V128.019H162.207V109.677Z" fill="white"/>
<path opacity="0.5" d="M164.648 109.677H164.254V128.019H164.648V109.677Z" fill="white"/>
<path opacity="0.5" d="M167.089 109.677H166.695V128.019H167.089V109.677Z" fill="white"/>
<path opacity="0.5" d="M169.53 109.677H169.136V128.019H169.53V109.677Z" fill="white"/>
<path opacity="0.5" d="M171.972 109.677H171.579V128.019H171.972V109.677Z" fill="white"/>
<path opacity="0.5" d="M174.413 109.677V128.888L174.374 128.826L174.019 128.251V109.677H174.413Z" fill="white"/>
<path opacity="0.5" d="M176.854 109.677V132.836L176.461 132.199V109.677H176.854Z" fill="white"/>
<path opacity="0.5" d="M179.296 109.677V136.782L178.902 136.146V109.677H179.296Z" fill="white"/>
<path opacity="0.5" d="M181.736 109.677V140.731L181.731 140.722L181.343 140.095V109.677H181.736Z" fill="white"/>
<path opacity="0.5" d="M184.178 109.764V143.77C184.051 143.647 183.927 143.522 183.805 143.394L183.785 143.374V109.722C183.916 109.734 184.047 109.747 184.178 109.764Z" fill="white"/>
<path opacity="0.5" d="M140.235 124.851V128.019H139.842V125.442L140.235 124.851Z" fill="white"/>
<path opacity="0.5" d="M142.677 121.189V128.019H142.283V121.779L142.468 121.502L142.677 121.189Z" fill="white"/>
<path opacity="0.5" d="M145.119 117.525V128.019H144.724V118.115L145.119 117.525Z" fill="white"/>
<path opacity="0.5" d="M147.562 113.964V128.019H147.169V114.474C147.241 114.374 147.316 114.275 147.391 114.178C147.445 114.104 147.502 114.032 147.562 113.964Z" fill="white"/>
<path opacity="0.5" d="M150.001 111.723V128.019H149.607V112.005C149.73 111.913 149.855 111.823 149.982 111.737L150.001 111.723Z" fill="white"/>
<path opacity="0.5" d="M203.833 145.836C203.766 145.879 203.698 145.921 203.629 145.962C203.5 146.046 203.368 146.119 203.235 146.194C203.215 146.207 203.195 146.219 203.174 146.23H187.462C187.238 146.104 187.018 145.973 186.802 145.836H203.833Z" fill="white"/>
<path opacity="0.5" d="M206.831 143.395C206.703 143.528 206.573 143.66 206.439 143.788H184.197C184.191 143.783 184.185 143.776 184.178 143.771C184.051 143.647 183.927 143.522 183.805 143.395H206.831Z" fill="white"/>
<path opacity="0.5" d="M208.759 140.953C208.675 141.079 208.596 141.205 208.512 141.327V141.347H182.142C182.053 141.217 181.966 141.086 181.88 140.953H208.759Z" fill="white"/>
<path opacity="0.5" d="M210.215 138.512L209.982 138.906H180.608L180.365 138.512H210.215Z" fill="white"/>
<path opacity="0.5" d="M211.657 136.071L211.425 136.464H179.099L178.902 136.146L178.855 136.071H211.657Z" fill="white"/>
<path opacity="0.5" d="M213.099 133.629L213.001 133.795L212.866 134.024H177.59L177.346 133.629H213.099Z" fill="white"/>
<path opacity="0.5" d="M214.495 131.266L214.263 131.661H176.129L175.884 131.266H214.495Z" fill="white"/>
<path opacity="0.5" d="M215.937 128.826L215.836 128.996L215.704 129.219H174.617L174.413 128.888L174.374 128.826H215.937Z" fill="white"/>
<path opacity="0.5" d="M217.379 126.384L217.146 126.778H138.951L139.214 126.384H217.379Z" fill="white"/>
<path opacity="0.5" d="M218.786 123.944C218.726 124.076 218.658 124.208 218.585 124.337H140.578L140.841 123.944H218.786Z" fill="white"/>
<path opacity="0.5" d="M195.935 121.896H142.205L142.283 121.779L142.468 121.502H195.75L195.912 121.845L195.935 121.896Z" fill="white"/>
<path opacity="0.5" d="M219.273 121.502V121.896H198.18L198.353 121.685L198.503 121.502H219.273Z" fill="white"/>
<path opacity="0.5" d="M194.783 119.454H143.832L144.094 119.06H194.596L194.783 119.454Z" fill="white"/>
<path opacity="0.5" d="M217.946 119.06V119.454H200.186L200.51 119.06H217.946Z" fill="white"/>
<path opacity="0.5" d="M193.63 117.013H145.459L145.721 116.62H193.471V116.676L193.63 117.013Z" fill="white"/>
<path opacity="0.5" d="M216.019 117.013H202.193L202.517 116.62H215.215L215.442 116.731L215.836 116.924L216.019 117.013Z" fill="white"/>
<path opacity="0.5" d="M192.27 114.57H147.094C147.117 114.537 147.141 114.504 147.165 114.472C147.237 114.372 147.312 114.273 147.388 114.177H191.975C192.076 114.307 192.174 114.438 192.27 114.57Z" fill="white"/>
<path opacity="0.5" d="M211.034 114.57H204.35C204.531 114.426 204.722 114.294 204.921 114.177H210.231L210.559 114.337L210.953 114.53L211.034 114.57Z" fill="white"/>
<path opacity="0.5" d="M189.92 112.13H149.442C149.495 112.089 149.551 112.046 149.609 112.005C149.732 111.913 149.857 111.823 149.984 111.737H189.383C189.565 111.862 189.744 111.994 189.92 112.13Z" fill="white"/>
</g>
<path d="M201.674 117.88L193.148 128.256" stroke="#111B7A" stroke-width="0.389544" stroke-miterlimit="10" stroke-linecap="round"/>
<path d="M183.552 109.677C185.411 109.677 187.235 110.194 188.818 111.17C190.401 112.146 191.682 113.542 192.518 115.204L196.755 123.63" stroke="#111B7A" stroke-width="0.389544" stroke-miterlimit="10" stroke-linecap="round"/>
<path d="M173.798 128.413L171.822 124.377" stroke="#111B7A" stroke-width="0.389544" stroke-miterlimit="10" stroke-linecap="round"/>
<path d="M165.885 109.677H162.207L165.935 107.393V116.895L174.193 109.755L173.467 107.393H174.523C174.988 107.393 175.442 107.528 175.832 107.781L178.745 109.677H174.253" stroke="#111B7A" stroke-width="0.389544" stroke-miterlimit="10" stroke-linecap="round"/>
<path d="M174.036 109.678L166.092 116.817V104.594H172.468L174.036 109.678Z" fill="#285CC2"/>
<path d="M172.468 104.592L174.036 109.677L166.093 106.526V104.592H172.468Z" fill="#22179E"/>
<path d="M172.659 101.381V101.578H172.371C172.142 101.578 171.922 101.669 171.76 101.831C171.598 101.993 171.507 102.212 171.507 102.441V102.579C171.183 102.571 170.87 102.459 170.614 102.261C170.357 102.063 170.17 101.789 170.08 101.478L169.943 100.999C169.824 100.591 169.577 100.232 169.237 99.9767C168.897 99.7213 168.483 99.5833 168.058 99.5835H167.06C166.803 99.5834 166.548 99.634 166.309 99.7326C166.071 99.8311 165.855 99.9756 165.673 100.158C165.491 100.34 165.346 100.556 165.247 100.794C165.149 101.032 165.098 101.287 165.098 101.545V101.377C165.098 100.612 165.402 99.8774 165.943 99.3361C166.485 98.7948 167.219 98.4907 167.984 98.4907H169.772C170.152 98.4907 170.527 98.5655 170.878 98.7108C171.228 98.8562 171.547 99.0691 171.815 99.3376C172.083 99.6061 172.295 99.9248 172.44 100.275C172.585 100.626 172.659 101.002 172.659 101.381Z" fill="#22179E"/>
<path d="M174.588 103.12C174.588 103.528 174.426 103.92 174.137 104.209C173.847 104.498 173.455 104.66 173.047 104.66H171.78L171.226 105.539C171.088 105.759 170.896 105.939 170.669 106.065C170.442 106.19 170.187 106.256 169.928 106.256H166.632C166.225 106.256 165.835 106.094 165.547 105.806C165.259 105.518 165.098 105.128 165.098 104.721V101.545C165.098 101.287 165.148 101.032 165.247 100.794C165.346 100.556 165.49 100.34 165.672 100.158C165.855 99.9756 166.071 99.8311 166.309 99.7326C166.547 99.634 166.802 99.5834 167.06 99.5835H168.055C168.48 99.5833 168.894 99.7213 169.234 99.9767C169.574 100.232 169.821 100.591 169.94 100.999L170.077 101.478C170.167 101.789 170.354 102.063 170.611 102.261C170.867 102.459 171.18 102.571 171.504 102.579V102.441C171.504 102.212 171.595 101.993 171.757 101.831C171.919 101.669 172.139 101.578 172.368 101.578H173.046C173.248 101.578 173.449 101.617 173.636 101.695C173.823 101.772 173.993 101.886 174.137 102.029C174.28 102.172 174.393 102.342 174.471 102.529C174.549 102.716 174.588 102.917 174.588 103.12Z" fill="#285CC2"/>
<path d="M172.373 103.229C172.373 103 172.464 102.78 172.626 102.618C172.788 102.456 173.007 102.365 173.236 102.365" stroke="#22179E" stroke-width="0.389544" stroke-miterlimit="10" stroke-linecap="round"/>
<path d="M166.774 103.955C165.866 103.955 166.361 101.681 166.361 101.681C166.361 101.681 165.721 101.542 165.176 101.681" stroke="#22179E" stroke-width="0.389544" stroke-miterlimit="10" stroke-linecap="round"/>
<path d="M167.851 101.551C167.851 101.551 168.699 101.5 169.307 101.787" stroke="#22179E" stroke-width="0.389544" stroke-miterlimit="10" stroke-linecap="round"/>
<path d="M168.333 103.054C168.456 103.054 168.556 102.885 168.556 102.676C168.556 102.466 168.456 102.297 168.333 102.297C168.211 102.297 168.111 102.466 168.111 102.676C168.111 102.885 168.211 103.054 168.333 103.054Z" fill="#22179E"/>
<path d="M165.5 103.03C165.615 103.03 165.708 102.871 165.708 102.676C165.708 102.48 165.615 102.321 165.5 102.321C165.385 102.321 165.292 102.48 165.292 102.676C165.292 102.871 165.385 103.03 165.5 103.03Z" fill="#22179E"/>
<path d="M166.972 104.739C166.972 104.739 167.933 104.823 168.112 104.504" stroke="#22179E" stroke-width="0.389544" stroke-miterlimit="10" stroke-linecap="round"/>
<path d="M219.202 121.141C217.253 122.148 214.604 121.954 213.146 121.018L210.046 119.026C208.259 117.878 207.129 115.572 207.738 113.457C207.865 113.462 207.99 113.471 208.118 113.485C208.247 113.499 208.381 113.519 208.512 113.544C208.968 113.63 209.41 113.776 209.827 113.98L210.231 114.178L210.559 114.339L210.953 114.532L211.036 114.572L213.003 115.535L213.397 115.728L215.217 116.62L215.445 116.731L215.838 116.924L216.021 117.013L216.357 117.181C216.933 117.462 217.452 117.849 217.886 118.321C218.028 118.474 218.159 118.635 218.28 118.805C218.774 119.497 219.091 120.299 219.202 121.141Z" fill="#22179E"/>
<path d="M210.737 117.629C209.782 117.021 209.06 116.108 208.689 115.039C208.318 113.97 208.319 112.806 208.693 111.738C209.784 108.632 211.748 104.352 213.528 104.451C214.42 104.502 213.603 107.796 214.939 107.847C216.51 107.908 222.698 98.719 224.266 99.743C225.834 100.767 227.848 108.318 226.123 111.661C225.185 113.479 222.27 116.794 219.75 119.04C218.933 119.767 217.902 120.208 216.812 120.295C215.723 120.382 214.634 120.111 213.713 119.523L210.737 117.629Z" fill="#285CC2"/>
<path d="M226.457 106.673C226.07 107.423 223.855 111.007 223.1 112.076" stroke="#22179E" stroke-width="0.389544" stroke-miterlimit="10" stroke-linecap="round"/>
<path d="M225.963 103.743C225.576 104.494 222.601 108.863 221.755 109.906" stroke="#22179E" stroke-width="0.389544" stroke-miterlimit="10" stroke-linecap="round"/>
<path d="M225.123 101.321C224.736 102.071 221.198 106.331 220.353 107.378" stroke="#22179E" stroke-width="0.389544" stroke-miterlimit="10" stroke-linecap="round"/>
<path d="M214.596 109.374C214.596 109.374 216.023 113.205 214.387 116.523" stroke="#22179E" stroke-width="0.389544" stroke-miterlimit="10" stroke-linecap="round"/>
<path d="M141.753 128.256H127.467C127.234 123.838 129.65 120.429 133.259 120.397C136.903 120.361 140.512 123.785 141.753 128.256Z" stroke="#111B7A" stroke-width="0.389544" stroke-miterlimit="10" stroke-linecap="round"/>
<path d="M257.871 176.511H293.32C293.025 167.76 286.904 159.246 275.577 159.246C265.835 159.243 258.382 167.395 257.871 176.511Z" fill="#111B7A"/>
<path d="M295.053 167.872C291.696 160.041 284.239 154.593 275.576 154.593C266.613 154.593 258.94 160.426 255.769 168.694" stroke="#111B7A" stroke-width="0.389544" stroke-miterlimit="10" stroke-linecap="round"/>
<path d="M277.193 189.648H273.988C267.056 189.648 261.965 183.705 261.965 176.374C261.965 169.044 267.056 163.101 273.988 163.101H277.193C270.504 163.101 265.083 169.043 265.083 176.374C265.083 183.706 270.504 189.648 277.193 189.648Z" fill="#3C46E3" stroke="#111B7A" stroke-width="0.389544" stroke-miterlimit="10"/>
<path d="M289.302 176.374C289.302 183.64 283.976 189.542 277.371 189.646H277.193C270.504 189.646 265.083 183.703 265.083 176.373C265.083 169.042 270.504 163.1 277.193 163.1H277.371C283.976 163.207 289.302 169.108 289.302 176.374Z" fill="white" stroke="#111B7A" stroke-width="0.389544" stroke-miterlimit="10"/>
<path d="M277.193 185.928C281.954 185.928 285.814 181.697 285.814 176.478C285.814 171.259 281.954 167.029 277.193 167.029C272.431 167.029 268.571 171.259 268.571 176.478C268.571 181.697 272.431 185.928 277.193 185.928Z" stroke="#111B7A" stroke-width="0.389544" stroke-miterlimit="10"/>
<path d="M120.727 176.511H156.177C155.881 167.76 149.761 159.246 138.434 159.246C128.692 159.243 121.239 167.395 120.727 176.511Z" fill="#111B7A"/>
<path d="M157.91 167.872C154.553 160.041 147.096 154.593 138.433 154.593C129.47 154.593 121.797 160.426 118.626 168.694" stroke="#111B7A" stroke-width="0.389544" stroke-miterlimit="10" stroke-linecap="round"/>
<path d="M140.049 189.648H136.845C129.913 189.648 124.822 183.705 124.822 176.374C124.822 169.044 129.913 163.101 136.845 163.101H140.049C133.361 163.101 127.94 169.043 127.94 176.374C127.94 183.706 133.361 189.648 140.049 189.648Z" fill="#3C46E3" stroke="#111B7A" stroke-width="0.389544" stroke-miterlimit="10"/>
<path d="M152.159 176.374C152.159 183.639 146.833 189.541 140.228 189.646H140.049C133.362 189.646 127.94 183.703 127.94 176.373C127.94 169.042 133.362 163.1 140.049 163.1H140.228C146.833 163.208 152.159 169.109 152.159 176.374Z" fill="white" stroke="#111B7A" stroke-width="0.389544" stroke-miterlimit="10"/>
<path d="M140.049 185.928C144.811 185.928 148.671 181.697 148.671 176.478C148.671 171.259 144.811 167.029 140.049 167.029C135.288 167.029 131.428 171.259 131.428 176.478C131.428 181.697 135.288 185.928 140.049 185.928Z" stroke="#111B7A" stroke-width="0.389544" stroke-miterlimit="10"/>
<path d="M312.445 143.718H305.471C304.267 143.718 303.176 142.949 302.685 141.756L301.229 138.213C300.809 137.189 301.498 136.031 302.531 136.031H312.445V143.718Z" fill="white"/>
<path d="M312.459 143.718H304.033C303.394 143.717 302.769 143.532 302.232 143.184C301.696 142.835 301.272 142.34 301.012 141.756L299.431 138.213C299.325 137.978 299.28 137.719 299.3 137.461C299.32 137.203 299.404 136.955 299.545 136.738C299.685 136.521 299.878 136.342 300.105 136.219C300.332 136.096 300.587 136.031 300.845 136.031H312.461L312.459 143.718Z" stroke="#111B7A" stroke-width="0.389544" stroke-miterlimit="10" stroke-linecap="round"/>
<path d="M312.414 138.673H299.771" stroke="#111B7A" stroke-width="0.389544" stroke-miterlimit="10" stroke-linecap="round"/>
<path d="M312.413 141.16H300.8" stroke="#111B7A" stroke-width="0.389544" stroke-miterlimit="10" stroke-linecap="round"/>
<path d="M108.429 153.62H105.459V150.43C105.46 148.508 106.016 146.626 107.06 145.012C108.104 143.397 109.592 142.118 111.345 141.328L112.459 140.825V149.583C112.46 150.113 112.357 150.638 112.155 151.127C111.953 151.617 111.656 152.062 111.282 152.437C110.907 152.812 110.463 153.11 109.973 153.313C109.484 153.516 108.959 153.62 108.429 153.62Z" fill="white"/>
<path d="M78.7394 153.934H75.7707V150.744C75.7706 148.821 76.3259 146.939 77.37 145.325C78.414 143.71 79.9024 142.431 81.6559 141.642L82.7697 141.138V149.905C82.7697 150.434 82.6655 150.958 82.4629 151.447C82.2603 151.936 81.9634 152.38 81.5891 152.754C81.2149 153.128 80.7706 153.425 80.2816 153.627C79.7926 153.83 79.2685 153.934 78.7394 153.934Z" fill="white"/>
<path d="M205.028 167.875H247.524C249.481 162.018 253.051 156.831 257.822 152.91V129.913" stroke="#111B7A" stroke-width="0.389544" stroke-miterlimit="10" stroke-linecap="round"/>
<path d="M201.925 114.57V95.6186C201.925 94.6169 201.527 93.6562 200.819 92.9479C200.111 92.2396 199.15 91.8417 198.148 91.8417H143.811C142.072 91.8418 140.362 92.2802 138.838 93.1164C137.314 93.9526 136.025 95.1596 135.091 96.6257" stroke="#111B7A" stroke-width="0.389544" stroke-miterlimit="10" stroke-linecap="round"/>
<path d="M147.034 149.905C151.275 151.32 155.146 153.669 158.359 156.779C161.573 159.888 164.048 163.679 165.602 167.872H201.925V149.072" stroke="#111B7A" stroke-width="0.389544" stroke-miterlimit="10" stroke-linecap="round"/>
<path d="M241.895 133.066C241.586 132.442 242.249 131.818 242.684 131.818H251.442C251.877 131.818 252.455 132.3 252.231 133.066" stroke="#111B7A" stroke-width="0.389544" stroke-miterlimit="10" stroke-linecap="round"/>
<path d="M105.459 176.311V149.898C105.46 148.128 105.969 146.396 106.926 144.907C107.883 143.418 109.248 142.236 110.859 141.501L144.985 128.16L166.592 94.2589C167.526 92.7928 168.814 91.5859 170.338 90.7497C171.862 89.9135 173.573 89.475 175.311 89.4749" stroke="#111B7A" stroke-width="0.389544" stroke-miterlimit="10" stroke-linecap="round"/>
<path d="M173.272 128.256H114.925" stroke="#111B7A" stroke-width="0.389544" stroke-miterlimit="10" stroke-linecap="round"/>
<path d="M116.221 126.216L115.265 127.715C114.684 127.104 114.613 127.001 113.111 127.001H108.863C108.535 127.001 108.211 126.937 107.908 126.811C107.605 126.686 107.329 126.502 107.098 126.27C106.866 126.039 106.682 125.763 106.556 125.46C106.431 125.158 106.366 124.833 106.366 124.505V122.994C106.366 122.666 106.431 122.342 106.556 122.039C106.682 121.736 106.866 121.461 107.098 121.229C107.329 120.997 107.605 120.813 107.908 120.688C108.211 120.563 108.535 120.498 108.863 120.498H110.458C111.151 120.498 111.833 120.673 112.441 121.006C113.048 121.34 113.562 121.821 113.935 122.405L116.221 126.216Z" fill="white" stroke="#111B7A" stroke-width="0.389544" stroke-miterlimit="10" stroke-linecap="round"/>
<path d="M115.375 127.542L115.176 127.854C114.982 127.705 114.772 127.577 114.551 127.472C113.721 127.077 112.747 127.001 111.472 127.001H107.223C106.895 127.001 106.571 126.937 106.268 126.811C105.965 126.686 105.689 126.502 105.458 126.27C105.226 126.039 105.042 125.763 104.916 125.461C104.791 125.158 104.726 124.833 104.726 124.505V122.994C104.726 122.667 104.791 122.342 104.916 122.039C105.042 121.736 105.226 121.461 105.458 121.229C105.689 120.997 105.965 120.813 106.268 120.688C106.571 120.563 106.895 120.498 107.223 120.498H108.818C109.511 120.498 110.193 120.673 110.801 121.006C111.408 121.34 111.922 121.821 112.295 122.405L115.375 127.542Z" fill="white"/>
<path d="M104.727 123.061V124.505C104.727 124.833 104.791 125.158 104.916 125.46C105.042 125.763 105.226 126.039 105.458 126.27C105.689 126.502 105.965 126.686 106.267 126.811C106.57 126.937 106.895 127.001 107.223 127.001H111.472C112.749 127.001 113.722 127.076 114.552 127.472L112.118 123.409C111.745 122.824 111.231 122.343 110.623 122.01C110.016 121.676 109.334 121.501 108.64 121.501H107.046C106.548 121.5 106.061 121.648 105.647 121.926C105.234 122.204 104.913 122.599 104.727 123.061Z" fill="#515BF6"/>
<path d="M115.375 127.542L115.176 127.854C114.21 127.12 113.078 127.001 111.472 127.001H107.223C106.895 127.001 106.571 126.937 106.268 126.811C105.965 126.686 105.689 126.502 105.458 126.27C105.226 126.039 105.042 125.763 104.916 125.461C104.791 125.158 104.726 124.833 104.726 124.505V122.994C104.726 122.667 104.791 122.342 104.916 122.039C105.042 121.736 105.226 121.461 105.458 121.229C105.689 120.997 105.965 120.813 106.268 120.688C106.571 120.563 106.895 120.498 107.223 120.498H108.818C109.511 120.498 110.193 120.673 110.801 121.006C111.408 121.34 111.922 121.821 112.295 122.405L115.375 127.542Z" stroke="#111B7A" stroke-width="0.389544" stroke-miterlimit="10" stroke-linecap="round"/>
<path d="M162.785 123.051V124.562C162.785 124.89 162.721 125.215 162.595 125.518C162.47 125.82 162.286 126.096 162.054 126.327C161.823 126.559 161.547 126.743 161.244 126.868C160.942 126.994 160.617 127.058 160.289 127.058H151.877C150.6 127.058 149.627 127.133 148.797 127.529C148.437 127.701 148.108 127.931 147.822 128.209H147.605L151.047 122.463C151.419 121.879 151.933 121.397 152.541 121.064C153.149 120.731 153.831 120.556 154.524 120.556H160.286C160.614 120.556 160.939 120.62 161.242 120.745C161.545 120.87 161.821 121.054 162.053 121.286C162.285 121.517 162.469 121.793 162.595 122.096C162.721 122.399 162.785 122.723 162.785 123.051Z" fill="white"/>
<path d="M162.785 123.117V124.558C162.785 124.886 162.721 125.21 162.596 125.513C162.47 125.816 162.286 126.091 162.054 126.323C161.823 126.555 161.547 126.739 161.245 126.864C160.942 126.99 160.617 127.054 160.289 127.054H151.877C150.6 127.054 149.627 127.129 148.797 127.525L151.231 123.462C151.604 122.877 152.118 122.396 152.726 122.062C153.333 121.729 154.015 121.554 154.709 121.554H160.471C160.968 121.554 161.454 121.703 161.867 121.981C162.279 122.26 162.599 122.655 162.785 123.117Z" fill="#515BF6"/>
<path d="M162.785 123.051V124.562C162.785 124.89 162.721 125.215 162.595 125.518C162.47 125.82 162.286 126.096 162.054 126.327C161.823 126.559 161.547 126.743 161.244 126.868C160.942 126.994 160.617 127.058 160.289 127.058H151.877C150.069 127.058 148.867 127.208 147.822 128.209H147.605L151.047 122.463C151.419 121.879 151.933 121.397 152.541 121.064C153.149 120.731 153.831 120.556 154.524 120.556H160.286C160.614 120.556 160.939 120.62 161.242 120.745C161.545 120.87 161.821 121.054 162.053 121.286C162.285 121.517 162.469 121.793 162.595 122.096C162.721 122.399 162.785 122.723 162.785 123.051V123.051Z" stroke="#111B7A" stroke-width="0.389544" stroke-miterlimit="10" stroke-linecap="round"/>
<path d="M10.0955 206.955H118.52" stroke="#111B7A" stroke-width="0.389544" stroke-miterlimit="10" stroke-linecap="round"/>
<path d="M44.7738 210.464H105.631" stroke="#111B7A" stroke-width="0.389544" stroke-miterlimit="10" stroke-linecap="round"/>
<path d="M113.381 161.893V198.294C113.381 199.635 112.848 200.922 111.899 201.871C110.95 202.819 109.664 203.352 108.322 203.352H86.4606C85.1242 203.344 83.8452 202.808 82.903 201.86C81.9607 200.912 81.4317 199.63 81.4315 198.294V161.893C81.4315 160.556 81.9604 159.274 82.9026 158.326C83.8449 157.378 85.124 156.841 86.4606 156.833H108.323C109.665 156.833 110.951 157.367 111.9 158.315C112.848 159.264 113.381 160.551 113.381 161.893Z" fill="white" stroke="#111B7A" stroke-width="0.389544" stroke-miterlimit="10"/>
<path d="M93.0234 162.592V198.212C93.0234 200.938 90.7749 203.147 87.9942 203.164C85.2145 203.148 82.9659 200.939 82.9659 198.212V162.592C82.9659 159.867 85.2145 157.657 87.9942 157.64C90.7749 157.657 93.0234 159.867 93.0234 162.592Z" fill="#98C8DB"/>
<path d="M91.4883 161.893V198.294C91.4969 198.96 91.3732 199.62 91.1244 200.238C90.8755 200.856 90.5065 201.418 90.0386 201.892C89.5708 202.366 89.0136 202.742 88.3992 202.999C87.7848 203.256 87.1255 203.388 86.4596 203.388C85.7937 203.388 85.1344 203.256 84.52 202.999C83.9057 202.742 83.3484 202.366 82.8806 201.892C82.4128 201.418 82.0437 200.856 81.7949 200.238C81.546 199.62 81.4223 198.96 81.4309 198.294V161.893C81.4223 161.227 81.546 160.566 81.7949 159.948C82.0437 159.331 82.4128 158.769 82.8806 158.295C83.3484 157.821 83.9057 157.445 84.52 157.188C85.1344 156.931 85.7937 156.799 86.4596 156.799C87.1255 156.799 87.7848 156.931 88.3992 157.188C89.0136 157.445 89.5708 157.821 90.0386 158.295C90.5065 158.769 90.8755 159.331 91.1244 159.948C91.3732 160.566 91.4969 161.227 91.4883 161.893V161.893Z" stroke="#111B7A" stroke-width="0.389544" stroke-miterlimit="10"/>
<path d="M107.799 206.955C108.535 206.955 109.132 206.359 109.132 205.623C109.132 204.886 108.535 204.29 107.799 204.29C107.063 204.29 106.466 204.886 106.466 205.623C106.466 206.359 107.063 206.955 107.799 206.955Z" stroke="#111B7A" stroke-width="0.389544" stroke-miterlimit="10" stroke-linecap="round"/>
<path d="M91.5616 206.955C92.2977 206.955 92.8944 206.359 92.8944 205.623C92.8944 204.886 92.2977 204.29 91.5616 204.29C90.8255 204.29 90.2288 204.886 90.2288 205.623C90.2288 206.359 90.8255 206.955 91.5616 206.955Z" stroke="#111B7A" stroke-width="0.389544" stroke-miterlimit="10" stroke-linecap="round"/>
<path d="M102.903 139.692H92.923V156.834H102.903V139.692Z" stroke="#111B7A" stroke-width="0.389544" stroke-miterlimit="10" stroke-linecap="round"/>
<path d="M104.214 139.289H91.4539V140.093H104.214V139.289Z" fill="#111B7A"/>
<path d="M96.5779 162.592V198.212" stroke="#111B7A" stroke-width="0.389544" stroke-miterlimit="10" stroke-linecap="round"/>
<path d="M100.698 162.592V198.212" stroke="#111B7A" stroke-width="0.389544" stroke-miterlimit="10" stroke-linecap="round"/>
<path d="M104.818 162.592V198.212" stroke="#111B7A" stroke-width="0.389544" stroke-miterlimit="10" stroke-linecap="round"/>
<path d="M108.938 162.592V198.212" stroke="#111B7A" stroke-width="0.389544" stroke-miterlimit="10" stroke-linecap="round"/>
<path d="M110.405 165.866H103.328V169.646H110.405V165.866Z" fill="#A7FFAF"/>
<path d="M102.578 173.942L97.4195 175.624L99.1017 180.783L104.26 179.101L102.578 173.942Z" fill="#515BF6"/>
<path d="M107.563 185.835H102.903V188.944H107.563V185.835Z" fill="#98C8DB"/>
<path d="M105.61 89.2911H100.169C99.4915 89.2911 98.9421 89.8405 98.9421 90.5182V101.518C98.9421 102.196 99.4915 102.745 100.169 102.745H105.61C106.287 102.745 106.837 102.196 106.837 101.518V90.5182C106.837 89.8405 106.287 89.2911 105.61 89.2911Z" fill="#98C8DB"/>
<path d="M105.86 104.828L100.835 105.855C100.159 104.909 99.4086 104.019 98.5898 103.194C96.7861 101.355 94.8523 100.005 93.5078 99.5333L94.4914 95.3829C94.5972 94.9363 94.8465 94.5367 95.2011 94.2454C95.5556 93.954 95.996 93.7869 96.4546 93.7697L98.9439 93.6791C98.9441 93.9222 98.9928 94.1627 99.087 94.3868C99.1813 94.6108 99.3193 94.8138 99.493 94.9838C99.6666 95.1539 99.8724 95.2876 100.098 95.3772C100.324 95.4667 100.566 95.5103 100.809 95.5054L105.048 95.4215C105.526 95.4118 105.981 95.2154 106.315 94.8743C106.65 94.5332 106.837 94.0746 106.838 93.5968V92.8574C107.137 92.8731 107.419 92.9999 107.63 93.2131C107.84 93.4263 107.964 93.7104 107.976 94.0098L108.28 101.464C108.311 102.214 108.089 102.954 107.651 103.564C107.212 104.173 106.581 104.618 105.86 104.828Z" fill="#3C46E3"/>
<path d="M107.864 95.6313C107.927 97.1765 106.144 97.7817 104.401 97.9814" stroke="#111B7A" stroke-width="0.389544" stroke-miterlimit="10" stroke-linecap="round"/>
<path d="M107.933 97.868C107.996 99.414 106.213 100.018 104.47 100.218" stroke="#111B7A" stroke-width="0.389544" stroke-miterlimit="10" stroke-linecap="round"/>
<path d="M108.121 100.05C108.184 101.595 106.4 102.117 104.657 102.316" stroke="#111B7A" stroke-width="0.389544" stroke-miterlimit="10" stroke-linecap="round"/>
<path d="M105.343 91.2887C105.596 91.2887 105.801 91.0836 105.801 90.8305C105.801 90.5774 105.596 90.3722 105.343 90.3722C105.09 90.3722 104.885 90.5774 104.885 90.8305C104.885 91.0836 105.09 91.2887 105.343 91.2887Z" stroke="#111B7A" stroke-width="0.311635" stroke-miterlimit="10" stroke-linecap="round"/>
<path d="M32.5623 142.779L50.3573 147.54L32.6034 196.664H13.8138L32.5623 142.779Z" fill="#3C46E3"/>
<path d="M32.5621 142.779L50.3571 147.54L48.6399 152.291L30.9053 147.54L32.5621 142.779Z" fill="#111B7A"/>
<path d="M71.8628 196.664H53.7867L52.0636 147.54H68.697L71.8628 196.664Z" fill="#3C46E3"/>
<path d="M68.7784 148.794L52.265 153.263H52.2642L52.0636 147.54H68.6978L68.7784 148.794Z" fill="#111B7A"/>
<path d="M33.1372 203.793C33.4197 203.902 33.6626 204.095 33.8339 204.345C34.0052 204.595 34.0971 204.891 34.0974 205.194V206.956H14.2486C13.8121 206.956 13.382 206.852 12.9941 206.651C12.6063 206.451 12.272 206.161 12.0192 205.805C11.7663 205.449 11.6023 205.038 11.5407 204.606C11.4791 204.174 11.5218 203.733 11.6652 203.321L13.9993 196.607L32.3961 196.691L31.5106 199.277C31.219 200.102 31.2216 201.002 31.5181 201.825C31.8146 202.647 32.3867 203.342 33.1372 203.791V203.793Z" fill="white" stroke="#111B7A" stroke-width="0.389544" stroke-miterlimit="10"/>
<path d="M34.0986 206.955H14.2481C13.8117 206.955 13.3816 206.851 12.9937 206.65C12.6059 206.45 12.2716 206.16 12.0187 205.804C11.7659 205.448 11.6018 205.037 11.5402 204.605C11.4787 204.173 11.5214 203.733 11.6647 203.32L12.1499 201.925C12.069 202.322 12.0776 202.733 12.1748 203.127C12.2721 203.52 12.4557 203.888 12.7123 204.202C12.9689 204.516 13.2922 204.769 13.6587 204.943C14.0252 205.117 14.4258 205.208 14.8315 205.208H34.0961L34.0986 206.955Z" fill="#515BF6" stroke="#111B7A" stroke-width="0.389544" stroke-miterlimit="10"/>
<path d="M26.0877 196.664L25.6806 198.081C25.5863 198.408 25.5692 198.752 25.6307 199.087C25.6922 199.421 25.8307 199.737 26.035 200.009C26.2394 200.28 26.5042 200.501 26.8084 200.653C27.1127 200.805 27.4481 200.884 27.7881 200.884H31.0614L32.3984 196.697L26.0877 196.664Z" fill="#515BF6" stroke="#111B7A" stroke-width="0.389544" stroke-miterlimit="10"/>
<path d="M24.92 196.664L24.4265 198.377C24.3118 198.773 24.2908 199.19 24.3652 199.596C24.4395 200.001 24.6072 200.384 24.8549 200.713C25.1027 201.043 25.4237 201.31 25.7926 201.495C26.1615 201.679 26.5682 201.774 26.9805 201.774H31.5253" stroke="#111B7A" stroke-width="0.389544" stroke-miterlimit="10"/>
<path d="M75.6049 206.955H57.1821C56.3674 206.956 55.5845 206.639 54.9984 206.074C54.4123 205.508 54.0689 204.736 54.0406 203.922L53.9567 196.616L53.9802 196.61H71.6988L72.0866 200.45C72.1509 201.084 72.3792 201.69 72.7488 202.209C73.1185 202.729 73.6168 203.143 74.1949 203.411C74.6002 203.599 74.9446 203.897 75.1889 204.271C75.4331 204.645 75.5674 205.08 75.5764 205.527L75.6049 206.955Z" fill="white" stroke="#111B7A" stroke-width="0.389544" stroke-miterlimit="10"/>
<path d="M75.6052 206.955H57.1824C56.3677 206.956 55.5847 206.64 54.9986 206.074C54.4125 205.508 54.0691 204.736 54.0408 203.922L54.0207 202.203H54.0425C54.0782 203.012 54.4246 203.776 55.0095 204.336C55.5944 204.895 56.3728 205.208 57.1824 205.208H75.5498C75.5665 205.313 75.5761 205.42 75.5783 205.527L75.6052 206.955Z" fill="#515BF6" stroke="#111B7A" stroke-width="0.389544" stroke-miterlimit="10"/>
<path d="M72.157 200.881H70.2148C69.4999 200.881 68.8142 200.597 68.3086 200.092C67.803 199.586 67.519 198.9 67.519 198.185V196.61H71.6987L72.0865 200.45C72.1013 200.595 72.1249 200.739 72.157 200.881Z" fill="#515BF6" stroke="#111B7A" stroke-width="0.389544" stroke-miterlimit="10"/>
<path d="M72.4897 201.774H69.6914C68.8811 201.774 68.1041 201.452 67.5311 200.879C66.9582 200.306 66.6363 199.529 66.6363 198.719V196.613" stroke="#111B7A" stroke-width="0.389544" stroke-miterlimit="10"/>
<path d="M70.6123 147.54H52.0636L51.9133 143.234L50.3573 147.54L32.5639 142.779L41.8937 115.972C47.2795 119.286 66.6667 115.972 66.6667 115.972H66.9185L70.6123 147.54Z" fill="#A7FFAF"/>
<path d="M67.9945 125.208V147.537H67.4951V120.945L67.9945 125.208Z" fill="white"/>
<path d="M65.3449 116.181V147.536H64.8456V116.255L65.3449 116.181Z" fill="white"/>
<path d="M62.6953 116.552V147.536H62.1917V116.616L62.6953 116.552Z" fill="white"/>
<path d="M60.0449 116.868V147.536H59.5464V116.92L60.0449 116.868Z" fill="white"/>
<path d="M57.3951 117.126V147.537H56.8915V117.172C57.0622 117.157 57.2301 117.142 57.3951 117.126Z" fill="white"/>
<path d="M54.7455 117.318V147.533H54.2419V117.343C54.4115 117.34 54.5785 117.328 54.7455 117.318Z" fill="white"/>
<path d="M52.0949 117.428V142.732L51.5955 144.114V117.438L52.0949 117.428Z" fill="white"/>
<path d="M49.4474 117.43V147.297L48.9438 147.161V117.414C49.1117 117.424 49.2796 117.424 49.4474 117.43Z" fill="white"/>
<path d="M46.7947 117.272V146.586L46.2953 146.453V117.217C46.4593 117.237 46.6257 117.256 46.7947 117.272Z" fill="white"/>
<path d="M44.1443 116.842V145.876L43.6457 145.744V116.71C43.8069 116.752 43.9739 116.8 44.1443 116.842Z" fill="white"/>
<path d="M41.495 117.107V145.169L40.9956 145.035V118.543L41.495 117.107Z" fill="white"/>
<path d="M38.8449 124.724V144.46L38.3455 144.325V126.16L38.8449 124.724Z" fill="white"/>
<path d="M36.1948 132.34V143.75L35.6954 143.617V133.776L36.1948 132.34Z" fill="white"/>
<path d="M66.9948 116.668C49.9997 121.237 40.2545 120.794 40.2545 120.794L41.8936 115.972C47.2795 119.286 66.6666 115.972 66.6666 115.972H66.9184L66.9948 116.668Z" fill="#111B7A"/>
<path d="M52.3136 147.54L51.2536 128.07L47.6051 125.004" stroke="#111B7A" stroke-width="0.467452" stroke-miterlimit="10"/>
<path d="M62.6955 128.295L59.1687 130.044L55.6428 128.295V122.187H62.6955V128.295Z" fill="#A7FFAF" stroke="#316BDC" stroke-width="0.467452" stroke-linejoin="round"/>
<path d="M44.7144 128.295L41.1876 130.044L37.6617 128.295L39.8263 122.187H44.7144V128.295Z" fill="#A7FFAF" stroke="#316BDC" stroke-width="0.467452" stroke-linejoin="round"/>
<path d="M101.965 109.428C101.953 109.443 101.939 109.457 101.925 109.471L90.6356 121.799C89.0373 123.544 86.9812 124.805 84.7012 125.439C82.4213 126.073 80.0092 126.054 77.7396 125.384C75.4701 124.714 73.4343 123.42 71.864 121.649C70.2938 119.879 69.2523 117.703 68.8581 115.37L66.6633 102.383V115.973C66.6633 115.973 47.2753 119.287 41.8903 115.973L34.2131 137.931C34.2135 137.933 34.2135 137.935 34.2131 137.937C33.8086 138.988 30.4446 138.819 26.682 137.391C22.9194 135.963 20.0859 134.009 20.4711 132.953C20.4708 132.951 20.4708 132.949 20.4711 132.947C20.4715 132.944 20.4715 132.941 20.4711 132.938L35.5258 93.4196C36.3416 91.2786 37.7889 89.4362 39.6757 88.1365C41.5626 86.8367 43.7998 86.1412 46.091 86.142H68.6684C71.2464 86.142 73.7469 87.0234 75.7552 88.6399C77.7634 90.2564 79.1587 92.5109 79.7095 95.0294L82.8208 108.428L91.9919 99.5524C92.8136 98.745 95.8527 100.401 98.5897 103.194C101.285 105.94 102.699 108.572 101.965 109.428Z" fill="white" stroke="#111B7A" stroke-width="0.389544" stroke-miterlimit="10"/>
<path d="M34.212 137.931C34.2123 137.933 34.2123 137.935 34.212 137.936C33.8074 138.988 30.4435 138.819 26.6808 137.391C22.9182 135.963 20.0847 134.009 20.47 132.953C20.4696 132.951 20.4696 132.949 20.47 132.947C20.4703 132.944 20.4703 132.941 20.47 132.938C20.8896 131.894 24.3652 132.15 28.1211 133.575C31.877 134.999 34.5997 136.876 34.212 137.931Z" fill="white" stroke="#111B7A" stroke-width="0.389544" stroke-miterlimit="10"/>
<path d="M7.80349 148.083L1.88569 165.105C0.844253 168.101 2.42846 171.373 5.42412 172.415L14.8969 175.708C17.8925 176.75 21.1652 175.165 22.2067 172.17L28.1245 155.147C29.1659 152.152 27.5817 148.879 24.5861 147.838L15.1133 144.544C12.1176 143.503 8.84493 145.087 7.80349 148.083Z" stroke="#111B7A" stroke-width="0.389544" stroke-miterlimit="10" stroke-linecap="round"/>
<path d="M26.5896 159.562L22.2059 172.172C21.9583 172.884 21.5728 173.541 21.0715 174.104C20.5701 174.667 19.9627 175.126 19.2839 175.455C18.6052 175.783 17.8683 175.975 17.1155 176.019C16.3627 176.062 15.6086 175.957 14.8964 175.71L5.42313 172.416C3.98475 171.916 2.80395 170.865 2.14038 169.494C1.47682 168.123 1.38482 166.545 1.88461 165.107L6.26832 152.497C6.8783 150.743 8.15987 149.303 9.83121 148.494C11.5026 147.685 13.4268 147.573 15.1809 148.182L22.2764 150.65C23.1449 150.951 23.9454 151.422 24.6322 152.033C25.319 152.644 25.8786 153.385 26.2792 154.212C26.6797 155.04 26.9133 155.938 26.9665 156.856C27.0198 157.774 26.8917 158.694 26.5896 159.562Z" stroke="#111B7A" stroke-width="0.389544" stroke-miterlimit="10" stroke-linecap="round"/>
<path d="M10.3996 159.2L19.1494 162.242C19.4227 162.337 19.6471 162.537 19.7732 162.797C19.8993 163.057 19.9167 163.357 19.8217 163.631L19.3948 164.859L8.58382 161.1L9.01073 159.872C9.10576 159.599 9.30547 159.375 9.56593 159.248C9.8264 159.122 10.1263 159.105 10.3996 159.2V159.2Z" stroke="#111B7A" stroke-width="0.389544" stroke-miterlimit="10" stroke-linecap="round"/>
<path d="M9.66672 162.349L19.7349 165.85L18.3061 169.959C18.169 170.354 17.8808 170.678 17.5049 170.86C17.129 171.042 16.6963 171.067 16.3019 170.93L9.20817 168.463C8.81373 168.326 8.48992 168.038 8.30798 167.662C8.12603 167.286 8.10085 166.854 8.23798 166.459L9.66727 162.348L9.66672 162.349Z" fill="#98C8DB"/>
<path d="M8.95609 161.233L19.0242 164.733L17.5949 168.845C17.4578 169.239 17.1696 169.563 16.7937 169.745C16.4179 169.927 15.9851 169.952 15.5907 169.815L8.49699 167.349C8.10255 167.211 7.77874 166.923 7.5968 166.547C7.41485 166.172 7.38967 165.739 7.5268 165.344L8.95609 161.233V161.233Z" stroke="#111B7A" stroke-width="0.389544" stroke-miterlimit="10" stroke-linecap="round"/>
<path d="M28.2003 140.627L25.7604 148.293L15.969 144.817L17.4512 140.159L28.2003 140.627Z" stroke="#111B7A" stroke-width="0.389544" stroke-miterlimit="10" stroke-linecap="round"/>
<path d="M32.6146 136.066L32.4191 136.602L31.6914 138.593L30.1429 142.843C29.9798 143.305 29.6773 143.705 29.2772 143.989C28.877 144.272 28.3989 144.424 27.9086 144.424H18.8282C18.4482 144.424 18.0738 144.332 17.7366 144.157C17.3995 143.982 17.1093 143.728 16.8907 143.418C16.6721 143.107 16.5314 142.748 16.4805 142.371C16.4295 141.995 16.4699 141.612 16.5981 141.254L17.7001 138.168C17.8208 137.831 18.0426 137.54 18.3351 137.334C18.6276 137.128 18.9766 137.018 19.3343 137.018H21.2059L21.9025 134.951L21.9982 134.666L22.7058 132.568C24.1217 132.652 26.084 133.081 28.0421 133.827C29.8609 134.515 31.5151 135.31 32.6146 136.066Z" fill="#3C46E3"/>
<path d="M20.5518 144.114C20.1885 144.114 19.8304 144.026 19.5078 143.859C19.1853 143.692 18.9077 143.449 18.6985 143.152C18.4894 142.855 18.3547 142.512 18.3059 142.152C18.2572 141.792 18.2957 141.425 18.4183 141.083L19.3928 138.37C19.5083 138.048 19.7204 137.769 20.0002 137.573C20.2799 137.376 20.6136 137.271 20.9555 137.271H27.6339C27.7631 137.271 27.8904 137.302 28.0052 137.361C28.1199 137.421 28.2188 137.507 28.2933 137.612C28.3679 137.718 28.4161 137.84 28.4338 137.968C28.4515 138.096 28.4383 138.226 28.3952 138.348L27.5374 140.95L28.2013 140.927" stroke="#111B7A" stroke-width="0.389544" stroke-miterlimit="10" stroke-linecap="round"/>
<path d="M23.6098 144.114C23.2465 144.114 22.8886 144.026 22.5661 143.859C22.2437 143.691 21.9662 143.449 21.7571 143.152C21.548 142.855 21.4135 142.512 21.3647 142.152C21.316 141.791 21.3546 141.425 21.4772 141.083L22.4508 138.37C22.5663 138.047 22.7787 137.768 23.059 137.571C23.3392 137.374 23.6735 137.269 24.0161 137.269" stroke="#111B7A" stroke-width="0.389544" stroke-miterlimit="10" stroke-linecap="round"/>
<path d="M27.0073 144.282C25.4386 144.282 24.0068 142.558 24.5355 141.081L25.51 138.368C25.6255 138.046 25.8376 137.768 26.1174 137.571C26.3971 137.374 26.7308 137.269 27.0728 137.269" stroke="#111B7A" stroke-width="0.389544" stroke-miterlimit="10" stroke-linecap="round"/>
<path d="M21.9739 134.74L22.7091 132.483C24.1301 132.56 26.0471 132.986 28.0421 133.742C29.9012 134.447 31.5395 135.252 32.6382 136.02L32.4585 136.5L21.9739 134.74Z" fill="#111B7A"/>
<path d="M63.4502 81.8698V86.308C63.4502 86.308 59.3762 87.7441 56.5771 86.308L59.7362 80.5781L59.988 80.1223C60.0224 80.1643 61.1975 81.5416 63.4502 81.8698Z" fill="#3C46E3"/>
<path d="M59.9878 80.1208C59.9878 80.1208 61.1628 81.5368 63.4499 81.87V85.0593L59.731 80.5716L59.9878 80.1208Z" fill="#111B7A"/>
<path d="M41.8883 115.639L15.7019 96.7483C15.7019 96.7483 15.3561 86.0337 26.5844 84.4844C31.7772 83.7659 33.5968 86.3913 37.7396 85.7836C41.9487 85.1667 40.2131 78.7066 46.413 77.3066C50.56 76.3683 51.7603 79.3461 54.7583 77.9143C56.802 76.939 57.9619 73.3308 61.7186 73.3308C64.5085 73.3308 64.9214 75.513 64.9214 75.513C64.9214 75.513 63.7254 76.9692 59.988 77.1111V79.9546C59.988 79.9546 59.988 84.8092 55.7453 86.7245C52.6533 88.1194 54.2026 90.3503 55.2274 94.6492C56.577 100.311 51.4623 104.454 46.4718 105.56C41.5224 106.66 40.3994 111.549 41.8883 115.639Z" fill="#515BF6"/>
<path d="M60.4425 77.0876C63.7712 76.8559 64.8908 75.5525 64.9244 75.5105L66.1145 78.396C66.1418 78.4622 66.1548 78.5333 66.1528 78.6048C66.1508 78.6764 66.1337 78.7466 66.1028 78.8111C66.0718 78.8756 66.0277 78.9329 65.9732 78.9793C65.9186 79.0256 65.855 79.0599 65.7863 79.0801L65.4901 79.164L65.6579 80.2333C65.7016 80.5141 65.6511 80.8015 65.5145 81.0508C65.3779 81.3 65.1628 81.4971 64.9026 81.6114C64.4 81.8399 63.8436 81.9234 63.2961 81.8523C61.0098 81.5166 59.9901 80.1208 59.9901 80.1208H59.5612C59.1605 80.1208 58.7763 79.9616 58.4929 79.6783C58.2096 79.395 58.0504 79.0107 58.0504 78.6101C58.0504 78.2094 58.2096 77.8251 58.4929 77.5418C58.7763 77.2585 59.1605 77.0993 59.5612 77.0993L60.4425 77.0876Z" fill="#3C46E3"/>
<path d="M59.3672 77.9336C59.6212 77.9336 59.8648 78.0345 60.0444 78.2141C60.2239 78.3937 60.3248 78.6373 60.3248 78.8912" stroke="#111B7A" stroke-width="0.389544" stroke-miterlimit="10" stroke-linecap="round"/>
<path d="M62.8926 77.4384C62.8926 77.4384 63.507 76.9827 64.1969 76.9709" stroke="#515BF6" stroke-width="0.311635" stroke-miterlimit="10" stroke-linecap="round"/>
<path d="M63.8567 78.5623C63.9865 78.5623 64.0917 78.3759 64.0917 78.146C64.0917 77.9161 63.9865 77.7297 63.8567 77.7297C63.7269 77.7297 63.6217 77.9161 63.6217 78.146C63.6217 78.3759 63.7269 78.5623 63.8567 78.5623Z" fill="#111B7A"/>
</svg>
