<svg width="30" height="28" viewBox="0 0 30 28" fill="none" xmlns="http://www.w3.org/2000/svg">
<path d="M24.1094 22.9351H23.8113H23.0771H22.4378L22.5918 22.3146C22.7526 21.6673 23.1953 21.0386 23.8088 20.5102L23.8089 20.5101C24.76 19.6918 26.0616 19.1829 27.1032 19.3386C27.3763 19.3792 27.6282 19.1925 27.6688 18.9219L27.6689 18.9211C27.71 18.6508 27.5235 18.3977 27.252 18.3569L27.2514 18.3568C26.0159 18.1696 24.4697 18.6643 23.2248 19.708L22.4035 20.3965V19.3248V2.4443C22.2289 2.97016 21.912 3.43059 21.5015 3.78208V22.4356V22.9356H21.0015H8.83274H8.37877L8.33507 22.4837C8.2336 21.4345 7.67949 20.3779 6.74209 19.5537C5.68521 18.6249 4.40099 18.2052 3.22973 18.3564L3.22929 18.3565C2.95746 18.3913 2.7655 18.6401 2.80053 18.9119L2.80055 18.9121C2.83546 19.1837 3.08451 19.3758 3.35661 19.3411L24.1094 22.9351ZM24.1094 22.9351L24.2511 22.6729M24.1094 22.9351L24.2511 22.6729M24.2511 22.6729C24.7234 21.7994 25.6472 21.208 26.7081 21.208C28.2507 21.208 29.5 22.4584 29.5 24.001C29.5 25.5434 28.2498 26.7938 26.7071 26.7938C25.6466 26.7938 24.7234 26.2023 24.25 25.3283L24.1082 25.0664H23.8104H6.18972H5.89172L5.74993 25.3285C5.2774 26.2021 4.35364 26.7938 3.29267 26.7938C1.75019 26.7938 0.5 25.5434 0.5 24.001C0.5 22.4586 1.7502 21.208 3.29267 21.208C4.35359 21.208 5.27693 21.7998 5.75002 22.6736L5.89184 22.9356H6.18972H6.82113H7.42298L7.31266 22.3439C7.17297 21.5948 6.72767 20.8636 6.0863 20.2996L6.0861 20.2994M24.2511 22.6729L6.0861 20.2994M6.0861 20.2994C5.29792 19.6071 4.28693 19.222 3.35685 19.3411L6.0861 20.2994Z" fill="#59C08D" stroke="#59C08D"/>
<path d="M20.53 1.28399L20.5301 1.28461C20.5482 1.36403 20.5576 1.43709 20.5576 1.5066C20.5576 1.58366 20.5444 1.66678 20.5181 1.7656C20.4018 2.19884 20.0125 2.51322 19.5515 2.51291H19.5511C18.9954 2.51291 18.5451 2.06263 18.5451 1.5066C18.5451 0.950152 18.9954 0.5 19.5511 0.5C20.0281 0.5 20.4283 0.834033 20.53 1.28399Z" fill="#59C08D" stroke="#59C08D"/>
</svg>
