<svg width="213" height="59" viewBox="0 0 213 59" fill="none" xmlns="http://www.w3.org/2000/svg">
<path d="M77.3532 30.3748L84.7946 22.0878H80.3298L73.7679 29.563V15.3229H70.1148V39H73.7679V31.1866L80.7019 39H85.0652L77.3532 30.3748ZM94.1508 39.4397C96.6538 39.4397 98.7509 38.5941 100.476 36.8691C102.201 35.144 103.08 33.0469 103.08 30.5439C103.08 28.0409 102.201 25.9438 100.476 24.2187C98.7509 22.4937 96.6538 21.6481 94.1508 21.6481C91.6816 21.6481 89.5506 22.4937 87.8256 24.2187C86.1006 25.9438 85.2211 28.0409 85.2211 30.5439C85.2211 33.0469 86.1006 35.144 87.8256 36.8691C89.5506 38.5941 91.6816 39.4397 94.1508 39.4397ZM90.3963 34.3661C89.3815 33.3513 88.8742 32.066 88.8742 30.5439C88.8742 29.0218 89.3815 27.7365 90.3963 26.7217C91.411 25.707 92.6625 25.1996 94.1508 25.1996C95.639 25.1996 96.8905 25.707 97.9053 26.7217C98.92 27.7365 99.4274 29.0218 99.4274 30.5439C99.4274 32.066 98.92 33.3513 97.9053 34.3661C96.8905 35.3808 95.639 35.8882 94.1508 35.8882C92.6625 35.8882 91.411 35.3808 90.3963 34.3661ZM110.037 39V14.3082H106.384V39H110.037ZM122.261 39.4397C124.764 39.4397 126.861 38.5941 128.586 36.8691C130.311 35.144 131.19 33.0469 131.19 30.5439C131.19 28.0409 130.311 25.9438 128.586 24.2187C126.861 22.4937 124.764 21.6481 122.261 21.6481C119.792 21.6481 117.661 22.4937 115.936 24.2187C114.21 25.9438 113.331 28.0409 113.331 30.5439C113.331 33.0469 114.21 35.144 115.936 36.8691C117.661 38.5941 119.792 39.4397 122.261 39.4397ZM118.506 34.3661C117.491 33.3513 116.984 32.066 116.984 30.5439C116.984 29.0218 117.491 27.7365 118.506 26.7217C119.521 25.707 120.772 25.1996 122.261 25.1996C123.749 25.1996 125 25.707 126.015 26.7217C127.03 27.7365 127.537 29.0218 127.537 30.5439C127.537 32.066 127.03 33.3513 126.015 34.3661C125 35.3808 123.749 35.8882 122.261 35.8882C120.772 35.8882 119.521 35.3808 118.506 34.3661ZM152.962 21.6481C150.628 21.6481 148.903 22.5275 147.786 24.3202C146.738 22.5275 145.148 21.6481 142.983 21.6481C140.852 21.6481 139.229 22.4599 138.147 24.1173V22.0878H134.493V39H138.147V29.5292C138.147 26.5864 139.702 25.0643 141.901 25.0643C143.931 25.0643 145.081 26.4173 145.081 28.7512V39H148.734V29.5292C148.734 26.5526 150.154 25.0643 152.42 25.0643C154.45 25.0643 155.701 26.4173 155.701 28.7512V39H159.354V28.5144C159.354 24.3202 156.784 21.6481 152.962 21.6481ZM172.836 21.6481C170.266 21.6481 168.304 22.5952 166.917 24.4893V15.3229H163.264V39H166.917V36.5646C168.304 38.4926 170.266 39.4397 172.836 39.4397C175.17 39.4397 177.132 38.5941 178.789 36.8691C180.447 35.144 181.259 33.0131 181.259 30.5439C181.259 28.0409 180.447 25.9438 178.789 24.2187C177.132 22.4937 175.17 21.6481 172.836 21.6481ZM168.439 34.4337C167.424 33.3851 166.917 32.0998 166.917 30.5439C166.917 28.988 167.424 27.7026 168.439 26.6879C169.454 25.6394 170.739 25.132 172.261 25.132C173.783 25.132 175.069 25.6394 176.084 26.6879C177.098 27.7026 177.606 28.988 177.606 30.5439C177.606 32.0998 177.098 33.3851 176.084 34.4337C175.069 35.4484 173.783 35.9558 172.261 35.9558C170.739 35.9558 169.454 35.4484 168.439 34.4337ZM188.223 22.0878H184.569V39H188.223V30.4763C188.223 28.7512 188.73 27.4997 189.778 26.7556C190.827 25.9776 192.045 25.6394 193.431 25.7408V21.7834C190.895 21.7834 189.136 22.8319 188.223 24.929V22.0878ZM211.675 32.0998C211.776 31.4572 211.81 30.9498 211.81 30.5777C211.81 28.1085 210.998 25.9776 209.409 24.2526C207.819 22.5275 205.79 21.6481 203.32 21.6481C200.716 21.6481 198.551 22.4937 196.894 24.2187C195.236 25.91 194.391 28.0071 194.391 30.5439C194.391 33.1146 195.236 35.2455 196.928 36.9367C198.619 38.5941 200.851 39.4397 203.591 39.4397C206.872 39.4397 209.341 38.222 210.998 35.7529L207.988 33.994C207.007 35.3808 205.553 36.0911 203.625 36.0911C200.817 36.0911 198.754 34.6705 198.213 32.0998H211.675ZM198.179 29.1233C198.686 26.5526 200.581 24.9629 203.287 24.9629C205.688 24.9629 207.616 26.3835 208.123 29.1233H198.179Z" fill="#102E53"/>
<circle cx="29.6036" cy="29.5" r="29.5" fill="#1F2688"/>
<path d="M51.7795 24.5495L8.24891 9.10352C2.25974 14.374 0.266141 23.8158 0.103638 28.2181L2.78493 29.4409L14.2414 32.6203L22.7728 29.4409L33.498 31.8866C38.7793 31.8866 49.9758 31.3974 52.5108 29.4409C55.0458 27.4844 53.0796 25.3648 51.7795 24.5495Z" fill="#515BF6"/>
<path d="M23.5693 46.2613C17.5852 49.2041 13.6089 51.3334 9.61949 51.0064C9.45327 51.0064 6.91103 48.6846 3.71953 43.5838C0.52803 38.483 -0.375727 31.1437 0.132505 28.0172L1.62852 27.2815C5.01949 26.1044 8.36059 27.445 9.60727 28.2624C12.7988 31.009 16.2562 30.5512 17.586 29.979C18.0847 29.7338 19.6804 28.9981 22.0741 28.0172C24.4677 27.0363 28.723 26.9545 30.5515 27.0363C37.134 28.0172 39.4445 27.9354 39.7769 27.7719C44.9631 26.3987 48.9192 27.3632 50.249 28.0172L53.0693 28.8295C47.0852 34.1264 38.6239 37.5454 34.967 37.5454C32.2852 38.2158 28.2625 36.2045 27.592 30.8408C26.2511 36.2045 30.2738 36.5551 30.2738 41.5681L23.5693 46.2613Z" fill="white"/>
<path d="M28.2628 36.2045C12.7083 42.1045 4.62224 41.8132 2.38739 40.9193C2.92375 44.6738 10.1654 52.2255 10.5713 51.958C13.2531 52.6284 22.8992 48.2726 26.2515 45.5908C28.3456 43.9155 30.8823 42.5821 30.9446 40.8976C30.9846 39.8188 30.7224 39.8684 30.2742 38.8863C29.8823 38.0274 28.2628 36.2045 28.2628 36.2045Z" fill="#F3F2F7"/>
<ellipse cx="25.8191" cy="20.792" rx="3.33682" ry="4.00419" fill="#1F2688"/>
<ellipse cx="25.6561" cy="19.6236" rx="1.13168" ry="1.67551" transform="rotate(31.2366 25.6561 19.6236)" fill="white"/>
<circle cx="26.709" cy="22.3492" r="0.667365" transform="rotate(180 26.709 22.3492)" fill="white"/>
</svg>
