<svg width="55" height="59" viewBox="0 0 55 59" fill="none" xmlns="http://www.w3.org/2000/svg">
<rect width="15.4059" height="51.829" transform="matrix(0.906308 0.422618 -0.417508 0.908673 40.6392 -14)" fill="#6663FF"/>
<rect width="15.4059" height="51.5649" transform="matrix(0.906308 -0.422618 0.417508 0.908673 -3 -7.48926)" fill="#BAB8FF"/>
<g filter="url(#filter0_ii_2478_3774)">
<circle cx="25.9999" cy="39" r="18" fill="#E59700"/>
</g>
<path d="M23.8134 47.1989C22.7907 47.1989 21.8816 47.0237 21.0862 46.6733C20.2955 46.3229 19.6705 45.8352 19.2112 45.2102C18.7519 44.5852 18.508 43.8632 18.4796 43.044H21.1501C21.1738 43.437 21.304 43.7803 21.5407 44.0739C21.7775 44.3627 22.0923 44.5876 22.4853 44.7486C22.8783 44.9096 23.3187 44.9901 23.8063 44.9901C24.3272 44.9901 24.7888 44.9001 25.1913 44.7202C25.5937 44.5355 25.9086 44.2798 26.1359 43.9531C26.3632 43.6264 26.4744 43.25 26.4697 42.8239C26.4744 42.3835 26.3608 41.9953 26.1288 41.6591C25.8968 41.3229 25.5606 41.0601 25.1203 40.8707C24.6847 40.6813 24.1591 40.5866 23.5436 40.5866H22.258V38.5554H23.5436C24.0502 38.5554 24.4929 38.4678 24.8717 38.2926C25.2552 38.1174 25.5559 37.8712 25.7737 37.554C25.9915 37.232 26.098 36.8603 26.0933 36.4389C26.098 36.027 26.0057 35.6695 25.8163 35.3665C25.6316 35.0587 25.3688 34.8196 25.0279 34.6491C24.6918 34.4787 24.2964 34.3935 23.8419 34.3935C23.3968 34.3935 22.9848 34.474 22.6061 34.6349C22.2273 34.7959 21.9219 35.0256 21.6899 35.3239C21.4579 35.6174 21.3348 35.9678 21.3205 36.375H18.785C18.804 35.5606 19.0383 34.8456 19.4882 34.2301C19.9427 33.6098 20.5488 33.1269 21.3063 32.7812C22.0639 32.4309 22.9138 32.2557 23.8561 32.2557C24.8267 32.2557 25.6695 32.438 26.3845 32.8026C27.1042 33.1624 27.6605 33.6477 28.0535 34.2585C28.4465 34.8693 28.643 35.544 28.643 36.2827C28.6477 37.1018 28.4062 37.7884 27.9186 38.3423C27.4356 38.8963 26.8011 39.2585 26.0151 39.429V39.5426C27.0379 39.6847 27.8215 40.0634 28.366 40.679C28.9152 41.2898 29.1875 42.0497 29.1828 42.9588C29.1828 43.7732 28.9508 44.5024 28.4867 45.1463C28.0275 45.7855 27.393 46.2874 26.5833 46.652C25.7784 47.0166 24.8551 47.1989 23.8134 47.1989ZM32.8031 47.1562C32.3723 47.1562 32.003 47.0047 31.6952 46.7017C31.3874 46.3987 31.2359 46.0294 31.2406 45.5938C31.2359 45.1676 31.3874 44.803 31.6952 44.5C32.003 44.197 32.3723 44.0455 32.8031 44.0455C33.2198 44.0455 33.582 44.197 33.8898 44.5C34.2023 44.803 34.3609 45.1676 34.3656 45.5938C34.3609 45.8826 34.2852 46.1454 34.1384 46.3821C33.9963 46.6188 33.8069 46.8082 33.5702 46.9503C33.3382 47.0876 33.0825 47.1562 32.8031 47.1562Z" fill="white"/>
<defs>
<filter id="filter0_ii_2478_3774" x="3.99988" y="21" width="44" height="40" filterUnits="userSpaceOnUse" color-interpolation-filters="sRGB">
<feFlood flood-opacity="0" result="BackgroundImageFix"/>
<feBlend mode="normal" in="SourceGraphic" in2="BackgroundImageFix" result="shape"/>
<feColorMatrix in="SourceAlpha" type="matrix" values="0 0 0 0 0 0 0 0 0 0 0 0 0 0 0 0 0 0 127 0" result="hardAlpha"/>
<feOffset dx="4" dy="4"/>
<feGaussianBlur stdDeviation="2"/>
<feComposite in2="hardAlpha" operator="arithmetic" k2="-1" k3="1"/>
<feColorMatrix type="matrix" values="0 0 0 0 1 0 0 0 0 1 0 0 0 0 1 0 0 0 0.25 0"/>
<feBlend mode="normal" in2="shape" result="effect1_innerShadow_2478_3774"/>
<feColorMatrix in="SourceAlpha" type="matrix" values="0 0 0 0 0 0 0 0 0 0 0 0 0 0 0 0 0 0 127 0" result="hardAlpha"/>
<feOffset dx="-4"/>
<feGaussianBlur stdDeviation="2"/>
<feComposite in2="hardAlpha" operator="arithmetic" k2="-1" k3="1"/>
<feColorMatrix type="matrix" values="0 0 0 0 0.729167 0 0 0 0 0.729167 0 0 0 0 0.729167 0 0 0 0.25 0"/>
<feBlend mode="normal" in2="effect1_innerShadow_2478_3774" result="effect2_innerShadow_2478_3774"/>
</filter>
</defs>
</svg>
