<svg width="114" height="114" viewBox="0 0 114 114" fill="none" xmlns="http://www.w3.org/2000/svg">
<path opacity="0.07" d="M56.9982 114C52.6147 114 48.237 112.335 44.8908 109.012L40.7297 104.851C39.1165 103.243 36.9561 102.354 34.6647 102.348H28.8106C19.3482 102.348 11.6472 94.6472 11.6472 85.1845V79.3245C11.6415 77.0387 10.7523 74.8782 9.13915 73.2536L5.04641 69.1664C-1.65703 62.5027 -1.68553 51.6092 4.9837 44.8999L9.14485 40.7329C10.7523 39.1197 11.6415 36.9592 11.6472 34.6677V28.8191C11.6472 19.3507 19.3482 11.6495 28.8106 11.6495H34.6704C36.9561 11.6495 39.1108 10.7603 40.7354 9.13565L44.8338 5.04847C51.4975 -1.65518 62.3849 -1.68939 69.0997 4.98577L73.2608 9.14705C74.8797 10.7603 77.0344 11.6495 79.3202 11.6495H85.18C94.6423 11.6495 102.343 19.3507 102.343 28.8191V34.6734C102.349 36.9592 103.238 39.1197 104.851 40.7443L108.944 44.8372C112.188 48.0636 113.983 52.3617 114 56.9505C114.012 61.5108 112.256 65.8032 109.058 69.0467C109.001 69.1037 108.95 69.1665 108.893 69.2178L104.846 73.265C103.238 74.8782 102.349 77.0387 102.343 79.3302V85.1845C102.343 94.6472 94.6423 102.348 85.18 102.348H79.3202C77.0344 102.354 74.874 103.243 73.2551 104.857L69.1567 108.949C65.8164 112.313 61.4044 114 56.9982 114Z" fill="url(#paint0_linear_0_495)"/>
<path d="M56.9985 104.997C53.3073 104.997 49.6209 103.595 46.8032 100.797L43.2992 97.2927C41.9408 95.9391 40.1216 95.1903 38.192 95.1855H33.2624C25.2944 95.1855 18.8096 88.7007 18.8096 80.7327V75.7983C18.8048 73.8735 18.056 72.0543 16.6976 70.6863L13.2512 67.2447C7.6064 61.6335 7.5824 52.4607 13.1984 46.8111L16.7024 43.3023C18.056 41.9439 18.8048 40.1247 18.8096 38.1951V33.2703C18.8096 25.2975 25.2944 18.8127 33.2624 18.8127H38.1968C40.1216 18.8127 41.936 18.0639 43.304 16.6959L46.7552 13.2543C52.3665 7.60952 61.5345 7.58072 67.1889 13.2015L70.6929 16.7055C72.0561 18.0639 73.8705 18.8127 75.7953 18.8127H80.7297C88.6977 18.8127 95.1825 25.2975 95.1825 33.2703V38.1999C95.1873 40.1247 95.9361 41.9439 97.2945 43.3119L100.741 46.7583C103.472 49.4751 104.984 53.0943 104.998 56.9583C105.008 60.7983 103.53 64.4127 100.837 67.1439C100.789 67.1919 100.746 67.2447 100.698 67.2879L97.2897 70.6959C95.9361 72.0543 95.1873 73.8735 95.1825 75.8031V80.7327C95.1825 88.7007 88.6977 95.1855 80.7297 95.1855H75.7953C73.8705 95.1903 72.0513 95.9391 70.6881 97.2975L67.2369 100.744C64.4241 103.576 60.7089 104.997 56.9985 104.997Z" fill="url(#paint1_linear_0_495)"/>
<path d="M52.1864 70.0033C51.2773 70.0033 50.3682 69.6631 49.6742 68.9787L40.043 59.4816C38.6549 58.1129 38.6549 55.8957 40.043 54.531C41.431 53.1622 43.6754 53.1582 45.0635 54.527L52.1864 61.5507L68.9404 45.0298C70.3285 43.6611 72.5729 43.6611 73.9609 45.0298C75.349 46.3986 75.349 48.6158 73.9609 49.9845L54.6987 68.9787C54.0047 69.6631 53.0956 70.0033 52.1864 70.0033Z" fill="white"/>
<defs>
<linearGradient id="paint0_linear_0_495" x1="-58.1398" y1="-52.44" x2="245.1" y2="232.218" gradientUnits="userSpaceOnUse">
<stop stop-color="#35DB87"/>
<stop offset="1" stop-color="#2DA96A"/>
</linearGradient>
<linearGradient id="paint1_linear_0_495" x1="-39.9563" y1="-35.1537" x2="215.387" y2="204.55" gradientUnits="userSpaceOnUse">
<stop stop-color="#35DB87"/>
<stop offset="1" stop-color="#2DA96A"/>
</linearGradient>
</defs>
</svg>
