<svg width="114" height="114" viewBox="0 0 114 114" fill="none" xmlns="http://www.w3.org/2000/svg">
<path opacity="0.07" d="M56.9982 114C52.6147 114 48.237 112.335 44.8908 109.012L40.7297 104.851C39.1165 103.243 36.9561 102.354 34.6647 102.348H28.8106C19.3482 102.348 11.6472 94.6472 11.6472 85.1845V79.3245C11.6415 77.0387 10.7523 74.8782 9.13915 73.2536L5.04641 69.1664C-1.65703 62.5027 -1.68553 51.6092 4.9837 44.8999L9.14485 40.7329C10.7523 39.1197 11.6415 36.9592 11.6472 34.6677V28.8191C11.6472 19.3507 19.3482 11.6495 28.8106 11.6495H34.6704C36.9561 11.6495 39.1108 10.7603 40.7354 9.13565L44.8338 5.04847C51.4975 -1.65518 62.3849 -1.68939 69.0997 4.98577L73.2608 9.14705C74.8797 10.7603 77.0344 11.6495 79.3202 11.6495H85.18C94.6423 11.6495 102.343 19.3507 102.343 28.8191V34.6734C102.349 36.9592 103.238 39.1197 104.851 40.7443L108.944 44.8372C112.188 48.0636 113.983 52.3617 114 56.9505C114.012 61.5108 112.256 65.8032 109.058 69.0467C109.001 69.1037 108.95 69.1665 108.893 69.2178L104.846 73.265C103.238 74.8782 102.349 77.0387 102.343 79.3302V85.1845C102.343 94.6472 94.6423 102.348 85.18 102.348H79.3202C77.0344 102.354 74.874 103.243 73.2551 104.857L69.1567 108.949C65.8164 112.313 61.4044 114 56.9982 114Z" fill="url(#paint0_linear_3631_3232)"/>
<path d="M56.9985 104.997C53.3073 104.997 49.6209 103.595 46.8032 100.797L43.2992 97.2927C41.9408 95.9391 40.1216 95.1904 38.192 95.1856H33.2624C25.2944 95.1856 18.8096 88.7008 18.8096 80.7327V75.7984C18.8048 73.8736 18.056 72.0544 16.6976 70.6864L13.2512 67.2448C7.6064 61.6336 7.5824 52.4608 13.1984 46.8111L16.7024 43.3024C18.056 41.944 18.8048 40.1248 18.8096 38.1952V33.2704C18.8096 25.2976 25.2944 18.8128 33.2624 18.8128H38.1968C40.1216 18.8128 41.936 18.064 43.304 16.696L46.7552 13.2544C52.3665 7.60955 61.5345 7.58075 67.1889 13.2016L70.6929 16.7056C72.0561 18.064 73.8705 18.8128 75.7953 18.8128H80.7297C88.6977 18.8128 95.1825 25.2976 95.1825 33.2704V38.2C95.1873 40.1248 95.9361 41.944 97.2945 43.312L100.741 46.7584C103.472 49.4752 104.984 53.0944 104.998 56.9584C105.008 60.7984 103.53 64.4128 100.837 67.144C100.789 67.192 100.746 67.2448 100.698 67.288L97.2897 70.6959C95.9361 72.0543 95.1873 73.8736 95.1825 75.8032V80.7327C95.1825 88.7008 88.6977 95.1856 80.7297 95.1856H75.7953C73.8705 95.1904 72.0513 95.9392 70.6881 97.2976L67.2369 100.744C64.4241 103.576 60.7089 104.997 56.9985 104.997Z" fill="url(#paint1_linear_3631_3232)"/>
<defs>
<linearGradient id="paint0_linear_3631_3232" x1="-58.1398" y1="-52.44" x2="245.1" y2="232.218" gradientUnits="userSpaceOnUse">
<stop stop-color="#FB5A12"/>
<stop offset="1" stop-color="#FF8C00"/>
</linearGradient>
<linearGradient id="paint1_linear_3631_3232" x1="-39.9563" y1="-35.1537" x2="215.387" y2="204.55" gradientUnits="userSpaceOnUse">
<stop stop-color="#FB5A12"/>
<stop offset="1" stop-color="#FF8C00"/>
</linearGradient>
</defs>
</svg>
