<svg width="30" height="30" viewBox="0 0 30 30" fill="none" xmlns="http://www.w3.org/2000/svg">
<path d="M24.5 12.75C24.5 20.3333 14.75 26.8333 14.75 26.8333C14.75 26.8333 5 20.3333 5 12.75C5 10.1641 6.02723 7.68419 7.85571 5.85571C9.68419 4.02723 12.1641 3 14.75 3C17.3359 3 19.8158 4.02723 21.6443 5.85571C23.4728 7.68419 24.5 10.1641 24.5 12.75Z" stroke="#ABB3BB" stroke-width="2" stroke-linecap="round" stroke-linejoin="round"/>
<path d="M14.75 16C16.5449 16 18 14.5449 18 12.75C18 10.9551 16.5449 9.5 14.75 9.5C12.9551 9.5 11.5 10.9551 11.5 12.75C11.5 14.5449 12.9551 16 14.75 16Z" stroke="#ABB3BB" stroke-width="2" stroke-linecap="round" stroke-linejoin="round"/>
</svg>
